<svg width="65" height="25" viewBox="0 0 65 25" fill="none" xmlns="http://www.w3.org/2000/svg">
<path d="M6.5332 11.9H7.92773L4.875 3.44495H3.46289L0.410156 11.9H1.75781L2.53711 9.65588H5.75977L6.5332 11.9ZM4.10156 4.9801H4.20117L5.42578 8.55432H2.87109L4.10156 4.9801ZM9.09281 11.9H10.3526V8.13245C10.3526 7.23596 11.0264 6.63245 11.9756 6.63245C12.1866 6.63245 12.5733 6.67346 12.6729 6.70862V5.46643C12.5381 5.43127 12.2979 5.4137 12.1163 5.4137C11.2842 5.4137 10.5811 5.87073 10.3995 6.49768H10.3057V5.51917H9.09281V11.9ZM13.7559 11.9H15.0157V8.1676C15.0157 7.17151 15.6368 6.55042 16.6505 6.55042C17.588 6.55042 18.045 7.06018 18.045 8.08557V11.9H19.3048V7.76917C19.3048 6.25159 18.502 5.39612 17.0782 5.39612C16.1173 5.39612 15.3731 5.82385 15.0626 6.53284H14.9688V5.51917H13.7559V11.9ZM23.5343 6.46838C24.4659 6.46838 25.0753 7.11877 25.1046 8.12073H21.882C21.9523 7.12463 22.6027 6.46838 23.5343 6.46838ZM25.0987 10.1774C24.8644 10.6754 24.3429 10.9508 23.5812 10.9508C22.5734 10.9508 21.923 10.2418 21.882 9.12268V9.05237H26.3878V8.61292C26.3878 6.60901 25.3155 5.39612 23.5402 5.39612C21.7413 5.39612 20.5987 6.69104 20.5987 8.7301C20.5987 10.7692 21.7179 12.0231 23.546 12.0231C25.005 12.0231 26.0245 11.3199 26.3116 10.1774H25.0987ZM30.4298 10.9039C29.3341 10.9039 28.7189 10.1012 28.7189 8.70667C28.7189 7.32385 29.3341 6.51526 30.4298 6.51526C31.5197 6.51526 32.1408 7.32385 32.1408 8.70667C32.1408 10.0953 31.5197 10.9039 30.4298 10.9039ZM30.4298 12.0231C32.2931 12.0231 33.4357 10.775 33.4357 8.70667C33.4357 6.65002 32.2873 5.39612 30.4298 5.39612C28.5666 5.39612 27.4181 6.65002 27.4181 8.70667C27.4181 10.775 28.5607 12.0231 30.4298 12.0231ZM38.051 3.44495V11.9H39.3635V9.05237H41.3205C42.9787 9.05237 44.1506 7.91565 44.1506 6.26331C44.1506 4.58752 43.0139 3.44495 41.3616 3.44495H38.051ZM39.3635 4.6051H41.0159C42.1702 4.6051 42.8088 5.19104 42.8088 6.26331C42.8088 7.31213 42.1467 7.89807 41.0159 7.89807H39.3635V4.6051ZM47.3841 10.9449C46.6985 10.9449 46.2005 10.611 46.2005 10.0367C46.2005 9.47424 46.5989 9.17542 47.4778 9.11682L49.0364 9.01721V9.55042C49.0364 10.3414 48.3333 10.9449 47.3841 10.9449ZM47.0618 12.0055C47.8997 12.0055 48.597 11.6422 48.9778 11.0035H49.0774V11.9H50.2903V7.54065C50.2903 6.19299 49.388 5.39612 47.7884 5.39612C46.3411 5.39612 45.3098 6.09924 45.1809 7.19495H46.3997C46.5403 6.74377 47.0266 6.48596 47.7298 6.48596C48.5911 6.48596 49.0364 6.86682 49.0364 7.54065V8.09143L47.3079 8.19104C45.7903 8.28479 44.9348 8.9469 44.9348 10.0953C44.9348 11.2614 45.8313 12.0055 47.0618 12.0055ZM51.9183 11.9H53.178V8.13245C53.178 7.23596 53.8519 6.63245 54.8011 6.63245C55.012 6.63245 55.3988 6.67346 55.4984 6.70862V5.46643C55.3636 5.43127 55.1234 5.4137 54.9417 5.4137C54.1097 5.4137 53.4066 5.87073 53.2249 6.49768H53.1312V5.51917H51.9183V11.9ZM56.6048 11.9H57.8587V5.51917H56.6048V11.9ZM57.2318 4.40002C57.7005 4.40002 58.0462 4.06604 58.0462 3.63245C58.0462 3.19299 57.7005 2.85901 57.2318 2.85901C56.763 2.85901 56.4173 3.19299 56.4173 3.63245C56.4173 4.06604 56.763 4.40002 57.2318 4.40002ZM59.3988 7.32385C59.3988 8.27307 59.9613 8.81799 61.1742 9.1051L62.2875 9.36292C62.9262 9.51526 63.225 9.76135 63.225 10.1422C63.225 10.652 62.6684 11.0035 61.8832 11.0035C61.1215 11.0035 60.6527 10.6989 60.4945 10.2067H59.2348C59.3461 11.3375 60.3363 12.0231 61.8539 12.0231C63.3773 12.0231 64.4965 11.2203 64.4965 10.0192C64.4965 9.08167 63.9281 8.56018 62.7152 8.27893L61.6547 8.03284C60.9633 7.87463 60.641 7.6344 60.641 7.25354C60.641 6.75549 61.1742 6.42151 61.8773 6.42151C62.5922 6.42151 63.0492 6.72034 63.1664 7.18909H64.3734C64.2504 6.06409 63.3129 5.39612 61.8773 5.39612C60.4359 5.39612 59.3988 6.19299 59.3988 7.32385Z" fill="black"/>
<path d="M5.47852 23.9H6.40137L3.80371 16.8541H2.93457L0.336914 23.9H1.25977L1.96777 21.8834H4.77051L5.47852 23.9ZM3.33008 17.9918H3.4082L4.51172 21.1364H2.22656L3.33008 17.9918ZM7.3643 23.9H8.20414V20.6383C8.20414 19.8961 8.7852 19.359 9.58598 19.359C9.75199 19.359 10.0547 19.3883 10.1231 19.4078V18.568C10.0157 18.5533 9.83988 18.5436 9.70316 18.5436C9.00492 18.5436 8.39945 18.9049 8.2432 19.4176H8.16508V18.6364H7.3643V23.9ZM11.0372 23.9H11.877V20.7848C11.877 19.8619 12.4337 19.3004 13.3565 19.3004C14.1964 19.3004 14.5968 19.7496 14.5968 20.6969V23.9H15.4366V20.4918C15.4366 19.2418 14.7774 18.5436 13.5958 18.5436C12.7901 18.5436 12.1798 18.8854 11.9161 19.4664H11.838V18.6364H11.0372V23.9ZM18.9093 19.2858C19.7443 19.2858 20.3009 19.901 20.3204 20.8336H17.42C17.4835 19.901 18.0695 19.2858 18.9093 19.2858ZM20.296 22.5377C20.0763 23.0016 19.6173 23.2506 18.9386 23.2506C18.045 23.2506 17.464 22.5914 17.42 21.5514V21.5123H21.2042V21.1901C21.2042 19.5543 20.34 18.5436 18.9191 18.5436C17.4737 18.5436 16.546 19.6178 16.546 21.2731C16.546 22.9381 17.4591 23.9928 18.9191 23.9928C20.0714 23.9928 20.882 23.441 21.1359 22.5377H20.296ZM24.5207 23.236C23.5246 23.236 22.963 22.5133 22.963 21.2682C22.963 20.0182 23.5246 19.3004 24.5207 19.3004C25.5168 19.3004 26.0783 20.0182 26.0783 21.2682C26.0783 22.5133 25.5168 23.236 24.5207 23.236ZM24.5207 23.9928C26.0197 23.9928 26.9474 22.9576 26.9474 21.2682C26.9474 19.5739 26.0197 18.5436 24.5207 18.5436C23.0216 18.5436 22.0939 19.5739 22.0939 21.2682C22.0939 22.9576 23.0216 23.9928 24.5207 23.9928Z" fill="black"/>
</svg>
