<svg width="304" height="64" viewBox="0 0 304 64" fill="none" xmlns="http://www.w3.org/2000/svg">
<path d="M6.5332 11.9H7.92773L4.875 3.44495H3.46289L0.410156 11.9H1.75781L2.53711 9.65588H5.75977L6.5332 11.9ZM4.10156 4.9801H4.20117L5.42578 8.55432H2.87109L4.10156 4.9801ZM9.09281 11.9H10.3526V8.13245C10.3526 7.23596 11.0264 6.63245 11.9756 6.63245C12.1866 6.63245 12.5733 6.67346 12.6729 6.70862V5.46643C12.5381 5.43127 12.2979 5.4137 12.1163 5.4137C11.2842 5.4137 10.5811 5.87073 10.3995 6.49768H10.3057V5.51917H9.09281V11.9ZM14.4356 3.97229V5.54846H13.3868V6.60901H14.4356V10.2125C14.4356 11.443 14.9923 11.9352 16.3927 11.9352C16.6388 11.9352 16.8673 11.9059 17.0665 11.8707V10.8219C16.8907 10.8395 16.7911 10.8512 16.5977 10.8512C15.9708 10.8512 15.6954 10.5582 15.6954 9.89026V6.60901H17.1251V5.54846H15.6954V3.97229H14.4356ZM18.4542 11.9H19.714V8.17346C19.714 7.20667 20.3527 6.55627 21.3839 6.55627C22.3331 6.55627 22.8077 7.0719 22.8077 8.09143V11.9H24.0675V7.78088C24.0675 6.26331 23.2472 5.40198 21.8116 5.40198C20.8507 5.40198 20.1124 5.82971 19.8019 6.54456H19.7023V3.02893H18.4542V11.9ZM31.1857 5.51917H29.9318V9.25159C29.9318 10.2535 29.3048 10.8571 28.2912 10.8571C27.3595 10.8571 26.8849 10.3649 26.8849 9.33362V5.51917H25.6252V9.65002C25.6252 11.1617 26.463 12.0231 27.881 12.0231C28.842 12.0231 29.5685 11.6129 29.8791 10.8864H29.9787V11.9H31.1857V5.51917ZM32.8547 11.9H34.1145V8.13245C34.1145 7.23596 34.7883 6.63245 35.7375 6.63245C35.9484 6.63245 36.3352 6.67346 36.4348 6.70862V5.46643C36.3 5.43127 36.0598 5.4137 35.8781 5.4137C35.0461 5.4137 34.343 5.87073 34.1613 6.49768H34.0676V5.51917H32.8547V11.9ZM44.5315 11.9V3.44495H43.2248V6.99573H38.883V3.44495H37.5705V11.9H38.883V8.19104H43.2248V11.9H44.5315ZM48.427 10.9449C47.7415 10.9449 47.2434 10.611 47.2434 10.0367C47.2434 9.47424 47.6419 9.17542 48.5208 9.11682L50.0794 9.01721V9.55042C50.0794 10.3414 49.3763 10.9449 48.427 10.9449ZM48.1048 12.0055C48.9427 12.0055 49.6399 11.6422 50.0208 11.0035H50.1204V11.9H51.3333V7.54065C51.3333 6.19299 50.4309 5.39612 48.8313 5.39612C47.3841 5.39612 46.3528 6.09924 46.2239 7.19495H47.4427C47.5833 6.74377 48.0696 6.48596 48.7727 6.48596C49.6341 6.48596 50.0794 6.86682 50.0794 7.54065V8.09143L48.3509 8.19104C46.8333 8.28479 45.9778 8.9469 45.9778 10.0953C45.9778 11.2614 46.8743 12.0055 48.1048 12.0055ZM52.8148 11.9H57.8655V10.8336H54.3968V10.734L57.8304 6.43909V5.51917H52.8382V6.58557H56.3245V6.68518L52.8148 11.0446V11.9ZM61.4681 10.9449C60.7826 10.9449 60.2845 10.611 60.2845 10.0367C60.2845 9.47424 60.683 9.17542 61.5619 9.11682L63.1205 9.01721V9.55042C63.1205 10.3414 62.4173 10.9449 61.4681 10.9449ZM61.1459 12.0055C61.9837 12.0055 62.681 11.6422 63.0619 11.0035H63.1615V11.9H64.3744V7.54065C64.3744 6.19299 63.472 5.39612 61.8724 5.39612C60.4252 5.39612 59.3939 6.09924 59.265 7.19495H60.4837C60.6244 6.74377 61.1107 6.48596 61.8138 6.48596C62.6752 6.48596 63.1205 6.86682 63.1205 7.54065V8.09143L61.392 8.19104C59.8744 8.28479 59.0189 8.9469 59.0189 10.0953C59.0189 11.2614 59.9154 12.0055 61.1459 12.0055ZM66.0023 11.9H67.2621V8.1676C67.2621 7.17151 67.8832 6.55042 68.8969 6.55042C69.8344 6.55042 70.2914 7.06018 70.2914 8.08557V11.9H71.5512V7.76917C71.5512 6.25159 70.7484 5.39612 69.3246 5.39612C68.3637 5.39612 67.6195 5.82385 67.309 6.53284H67.2152V5.51917H66.0023V11.9ZM83.438 12.8551L82.3657 11.3668C83.3266 10.6754 83.8657 9.35706 83.8657 7.67542C83.8657 4.95081 82.3774 3.24573 79.9985 3.24573C77.6079 3.24573 76.1137 4.94495 76.1137 7.67542C76.1137 10.4176 77.5903 12.0992 79.9985 12.0992C80.5434 12.0992 81.0591 12.0114 81.5102 11.8414L82.2544 12.8551H83.438ZM80.0044 11.1266C78.27 11.1266 77.1977 9.80823 77.1977 7.67542C77.1977 5.54846 78.2759 4.21838 79.9985 4.21838C81.7094 4.21838 82.7817 5.55432 82.7817 7.67542C82.7817 8.96448 82.4126 9.97229 81.7505 10.4996L80.9829 9.4801H79.7876L80.9067 10.9977C80.6137 11.0856 80.3149 11.1266 80.0044 11.1266ZM90.6323 5.58362H89.6245V9.3219C89.6245 10.4293 88.9566 11.0914 87.8433 11.0914C86.8355 11.0914 86.355 10.5641 86.355 9.42737V5.58362H85.3472V9.67346C85.3472 11.1676 86.1441 12.0114 87.562 12.0114C88.5288 12.0114 89.2613 11.6129 89.5777 10.9098H89.6714V11.9H90.6323V5.58362ZM94.8853 6.36292C95.8873 6.36292 96.5552 7.1012 96.5787 8.22034H93.0982C93.1744 7.1012 93.8775 6.36292 94.8853 6.36292ZM96.5494 10.2653C96.2857 10.8219 95.7349 11.1207 94.9205 11.1207C93.8482 11.1207 93.1509 10.3297 93.0982 9.08167V9.03479H97.6392V8.64807C97.6392 6.68518 96.6021 5.47229 94.897 5.47229C93.1627 5.47229 92.0494 6.76135 92.0494 8.74768C92.0494 10.7457 93.1451 12.0114 94.897 12.0114C96.2798 12.0114 97.2525 11.3492 97.5572 10.2653H96.5494ZM99.1148 11.9H100.123V3.07581H99.1148V11.9ZM108.213 5.47229C107.351 5.47229 106.595 5.91174 106.191 6.63831H106.097V5.58362H105.136V14.0094H106.144V10.9508H106.238C106.584 11.6188 107.31 12.0114 108.213 12.0114C109.818 12.0114 110.867 10.7164 110.867 8.74182C110.867 6.75549 109.824 5.47229 108.213 5.47229ZM107.972 11.1031C106.836 11.1031 106.115 10.1891 106.115 8.74182C106.115 7.2887 106.836 6.38049 107.978 6.38049C109.132 6.38049 109.824 7.26526 109.824 8.74182C109.824 10.2184 109.132 11.1031 107.972 11.1031ZM112.342 11.9H113.35V3.07581H112.342V11.9ZM117.088 11.1266C116.355 11.1266 115.81 10.7516 115.81 10.1071C115.81 9.47424 116.232 9.14026 117.193 9.07581L118.892 8.96448V9.54456C118.892 10.4469 118.125 11.1266 117.088 11.1266ZM116.9 12.0114C117.744 12.0114 118.435 11.6422 118.845 10.9684H118.939V11.9H119.9V7.57581C119.9 6.26331 119.039 5.47229 117.498 5.47229C116.15 5.47229 115.154 6.14026 115.019 7.15393H116.039C116.179 6.65588 116.707 6.36877 117.463 6.36877C118.406 6.36877 118.892 6.79651 118.892 7.57581V8.15002L117.07 8.26135C115.599 8.34924 114.767 8.99963 114.767 10.1305C114.767 11.2848 115.676 12.0114 116.9 12.0114ZM121.622 11.9H122.63V5.58362H121.622V11.9ZM122.126 4.30042C122.512 4.30042 122.829 3.98401 122.829 3.59729C122.829 3.21057 122.512 2.89417 122.126 2.89417C121.739 2.89417 121.423 3.21057 121.423 3.59729C121.423 3.98401 121.739 4.30042 122.126 4.30042ZM124.24 7.31213C124.24 8.2262 124.779 8.73596 125.963 9.02307L127.047 9.28674C127.721 9.45081 128.049 9.74377 128.049 10.1774C128.049 10.7574 127.439 11.1617 126.59 11.1617C125.781 11.1617 125.277 10.8219 125.107 10.2887H124.07C124.181 11.3375 125.148 12.0114 126.555 12.0114C127.99 12.0114 129.086 11.2321 129.086 10.1012C129.086 9.19299 128.512 8.67737 127.322 8.39026L126.349 8.15588C125.605 7.97424 125.254 7.70471 125.254 7.27112C125.254 6.70862 125.84 6.32776 126.59 6.32776C127.351 6.32776 127.844 6.66174 127.978 7.16565H128.974C128.84 6.12854 127.92 5.47229 126.596 5.47229C125.254 5.47229 124.24 6.26331 124.24 7.31213ZM130.526 11.9H131.534V5.58362H130.526V11.9ZM131.03 4.30042C131.417 4.30042 131.733 3.98401 131.733 3.59729C131.733 3.21057 131.417 2.89417 131.03 2.89417C130.643 2.89417 130.327 3.21057 130.327 3.59729C130.327 3.98401 130.643 4.30042 131.03 4.30042ZM133.291 11.9H134.299V7.98596C134.299 7.09534 134.996 6.45081 135.957 6.45081C136.156 6.45081 136.519 6.48596 136.601 6.5094V5.50159C136.473 5.48401 136.262 5.47229 136.098 5.47229C135.26 5.47229 134.533 5.90588 134.346 6.52112H134.252V5.58362H133.291V11.9ZM143.174 12.0114C144.047 12.0114 144.797 11.5953 145.195 10.8922H145.289V11.9H146.25V3.07581H145.242V6.57971H145.154C144.797 5.88831 144.053 5.47229 143.174 5.47229C141.568 5.47229 140.52 6.76135 140.52 8.74182C140.52 10.7281 141.557 12.0114 143.174 12.0114ZM143.408 6.38049C144.551 6.38049 145.266 7.29456 145.266 8.74182C145.266 10.2008 144.557 11.1031 143.408 11.1031C142.254 11.1031 141.562 10.2184 141.562 8.74182C141.562 7.27112 142.26 6.38049 143.408 6.38049ZM150.562 6.36292C151.564 6.36292 152.231 7.1012 152.255 8.22034H148.774C148.851 7.1012 149.554 6.36292 150.562 6.36292ZM152.226 10.2653C151.962 10.8219 151.411 11.1207 150.597 11.1207C149.524 11.1207 148.827 10.3297 148.774 9.08167V9.03479H153.315V8.64807C153.315 6.68518 152.278 5.47229 150.573 5.47229C148.839 5.47229 147.726 6.76135 147.726 8.74768C147.726 10.7457 148.821 12.0114 150.573 12.0114C151.956 12.0114 152.929 11.3492 153.233 10.2653H152.226ZM157.954 11.9H158.962V7.98596C158.962 7.09534 159.659 6.45081 160.62 6.45081C160.819 6.45081 161.183 6.48596 161.265 6.5094V5.50159C161.136 5.48401 160.925 5.47229 160.761 5.47229C159.923 5.47229 159.196 5.90588 159.009 6.52112H158.915V5.58362H157.954V11.9ZM164.703 6.36292C165.705 6.36292 166.373 7.1012 166.397 8.22034H162.916C162.992 7.1012 163.695 6.36292 164.703 6.36292ZM166.367 10.2653C166.104 10.8219 165.553 11.1207 164.738 11.1207C163.666 11.1207 162.969 10.3297 162.916 9.08167V9.03479H167.457V8.64807C167.457 6.68518 166.42 5.47229 164.715 5.47229C162.981 5.47229 161.867 6.76135 161.867 8.74768C161.867 10.7457 162.963 12.0114 164.715 12.0114C166.098 12.0114 167.07 11.3492 167.375 10.2653H166.367ZM169.296 4.00745V5.58362H168.236V6.42737H169.296V10.2594C169.296 11.4664 169.818 11.9469 171.118 11.9469C171.318 11.9469 171.499 11.9235 171.698 11.8883V11.0387C171.511 11.0563 171.423 11.0621 171.241 11.0621C170.585 11.0621 170.304 10.7457 170.304 10.0016V6.42737H171.769V5.58362H170.304V4.00745H169.296ZM173.069 11.9H174.076V7.98596C174.076 7.09534 174.774 6.45081 175.735 6.45081C175.934 6.45081 176.297 6.48596 176.379 6.5094V5.50159C176.25 5.48401 176.039 5.47229 175.875 5.47229C175.037 5.47229 174.311 5.90588 174.123 6.52112H174.03V5.58362H173.069V11.9ZM179.894 11.1031C178.699 11.1031 178.025 10.236 178.025 8.74182C178.025 7.24182 178.699 6.38049 179.894 6.38049C181.089 6.38049 181.763 7.24182 181.763 8.74182C181.763 10.236 181.089 11.1031 179.894 11.1031ZM179.894 12.0114C181.693 12.0114 182.806 10.7692 182.806 8.74182C182.806 6.70862 181.693 5.47229 179.894 5.47229C178.095 5.47229 176.982 6.70862 176.982 8.74182C176.982 10.7692 178.095 12.0114 179.894 12.0114ZM189.45 5.58362H188.442V9.3219C188.442 10.4293 187.774 11.0914 186.66 11.0914C185.653 11.0914 185.172 10.5641 185.172 9.42737V5.58362H184.164V9.67346C184.164 11.1676 184.961 12.0114 186.379 12.0114C187.346 12.0114 188.078 11.6129 188.395 10.9098H188.489V11.9H189.45V5.58362ZM190.632 5.58362L192.97 11.9H194.001L196.339 5.58362H195.261L193.533 10.7867H193.439L191.71 5.58362H190.632ZM199.807 6.36292C200.809 6.36292 201.477 7.1012 201.5 8.22034H198.02C198.096 7.1012 198.799 6.36292 199.807 6.36292ZM201.471 10.2653C201.207 10.8219 200.657 11.1207 199.842 11.1207C198.77 11.1207 198.073 10.3297 198.02 9.08167V9.03479H202.561V8.64807C202.561 6.68518 201.524 5.47229 199.819 5.47229C198.084 5.47229 196.971 6.76135 196.971 8.74768C196.971 10.7457 198.067 12.0114 199.819 12.0114C201.202 12.0114 202.174 11.3492 202.479 10.2653H201.471ZM203.978 11.9H204.986V7.98596C204.986 7.09534 205.683 6.45081 206.644 6.45081C206.843 6.45081 207.206 6.48596 207.289 6.5094V5.50159C207.16 5.48401 206.949 5.47229 206.785 5.47229C205.947 5.47229 205.22 5.90588 205.033 6.52112H204.939V5.58362H203.978V11.9ZM211.523 11.9H212.531V7.98596C212.531 7.09534 213.169 6.38049 213.996 6.38049C214.792 6.38049 215.314 6.86096 215.314 7.61096V11.9H216.322V7.83948C216.322 7.03674 216.908 6.38049 217.787 6.38049C218.677 6.38049 219.117 6.83752 219.117 7.76917V11.9H220.125V7.53479C220.125 6.21057 219.404 5.47229 218.115 5.47229C217.242 5.47229 216.521 5.91174 216.181 6.57971H216.087C215.794 5.92346 215.197 5.47229 214.341 5.47229C213.498 5.47229 212.865 5.87659 212.578 6.57971H212.484V5.58362H211.523V11.9ZM224.319 6.36292C225.321 6.36292 225.989 7.1012 226.012 8.22034H222.532C222.608 7.1012 223.311 6.36292 224.319 6.36292ZM225.983 10.2653C225.719 10.8219 225.169 11.1207 224.354 11.1207C223.282 11.1207 222.585 10.3297 222.532 9.08167V9.03479H227.073V8.64807C227.073 6.68518 226.036 5.47229 224.331 5.47229C222.596 5.47229 221.483 6.76135 221.483 8.74768C221.483 10.7457 222.579 12.0114 224.331 12.0114C225.713 12.0114 226.686 11.3492 226.991 10.2653H225.983ZM228.343 7.31213C228.343 8.2262 228.882 8.73596 230.066 9.02307L231.15 9.28674C231.824 9.45081 232.152 9.74377 232.152 10.1774C232.152 10.7574 231.543 11.1617 230.693 11.1617C229.884 11.1617 229.38 10.8219 229.211 10.2887H228.173C228.285 11.3375 229.252 12.0114 230.658 12.0114C232.093 12.0114 233.189 11.2321 233.189 10.1012C233.189 9.19299 232.615 8.67737 231.425 8.39026L230.453 8.15588C229.709 7.97424 229.357 7.70471 229.357 7.27112C229.357 6.70862 229.943 6.32776 230.693 6.32776C231.455 6.32776 231.947 6.66174 232.082 7.16565H233.078C232.943 6.12854 232.023 5.47229 230.699 5.47229C229.357 5.47229 228.343 6.26331 228.343 7.31213ZM240.347 6.36292C241.349 6.36292 242.017 7.1012 242.041 8.22034H238.56C238.636 7.1012 239.34 6.36292 240.347 6.36292ZM242.011 10.2653C241.748 10.8219 241.197 11.1207 240.383 11.1207C239.31 11.1207 238.613 10.3297 238.56 9.08167V9.03479H243.101V8.64807C243.101 6.68518 242.064 5.47229 240.359 5.47229C238.625 5.47229 237.511 6.76135 237.511 8.74768C237.511 10.7457 238.607 12.0114 240.359 12.0114C241.742 12.0114 242.715 11.3492 243.019 10.2653H242.011ZM239.691 4.49963H240.828L242.457 2.51917H241.168L239.691 4.49963ZM244.94 4.00745V5.58362H243.88V6.42737H244.94V10.2594C244.94 11.4664 245.462 11.9469 246.762 11.9469C246.962 11.9469 247.143 11.9235 247.342 11.8883V11.0387C247.155 11.0563 247.067 11.0621 246.885 11.0621C246.229 11.0621 245.948 10.7457 245.948 10.0016V6.42737H247.413V5.58362H245.948V4.00745H244.94ZM253.939 5.58362H252.931V9.3219C252.931 10.4293 252.263 11.0914 251.15 11.0914C250.142 11.0914 249.662 10.5641 249.662 9.42737V5.58362H248.654V9.67346C248.654 11.1676 249.451 12.0114 250.869 12.0114C251.836 12.0114 252.568 11.6129 252.885 10.9098H252.978V11.9H253.939V5.58362ZM258.011 12.0114C258.884 12.0114 259.634 11.5953 260.032 10.8922H260.126V11.9H261.087V3.07581H260.079V6.57971H259.991C259.634 5.88831 258.889 5.47229 258.011 5.47229C256.405 5.47229 255.356 6.76135 255.356 8.74182C255.356 10.7281 256.393 12.0114 258.011 12.0114ZM258.245 6.38049C259.387 6.38049 260.102 7.29456 260.102 8.74182C260.102 10.2008 259.393 11.1031 258.245 11.1031C257.091 11.1031 256.399 10.2184 256.399 8.74182C256.399 7.27112 257.096 6.38049 258.245 6.38049ZM262.902 11.9H263.91V5.58362H262.902V11.9ZM263.406 4.30042C263.793 4.30042 264.109 3.98401 264.109 3.59729C264.109 3.21057 263.793 2.89417 263.406 2.89417C263.019 2.89417 262.703 3.21057 262.703 3.59729C262.703 3.98401 263.019 4.30042 263.406 4.30042ZM267.612 11.1266C266.88 11.1266 266.335 10.7516 266.335 10.1071C266.335 9.47424 266.757 9.14026 267.718 9.07581L269.417 8.96448V9.54456C269.417 10.4469 268.649 11.1266 267.612 11.1266ZM267.425 12.0114C268.268 12.0114 268.96 11.6422 269.37 10.9684H269.464V11.9H270.425V7.57581C270.425 6.26331 269.563 5.47229 268.022 5.47229C266.675 5.47229 265.679 6.14026 265.544 7.15393H266.563C266.704 6.65588 267.231 6.36877 267.987 6.36877C268.931 6.36877 269.417 6.79651 269.417 7.57581V8.15002L267.595 8.26135C266.124 8.34924 265.292 8.99963 265.292 10.1305C265.292 11.2848 266.2 12.0114 267.425 12.0114ZM272.123 11.9H273.131V8.16174C273.131 7.05432 273.799 6.38049 274.906 6.38049C275.914 6.38049 276.394 6.91956 276.394 8.05627V11.9H277.402V7.81018C277.402 6.31018 276.611 5.47229 275.193 5.47229C274.226 5.47229 273.494 5.88245 273.178 6.57971H273.084V5.58362H272.123V11.9ZM279.505 4.00745V5.58362H278.444V6.42737H279.505V10.2594C279.505 11.4664 280.026 11.9469 281.327 11.9469C281.526 11.9469 281.708 11.9235 281.907 11.8883V11.0387C281.72 11.0563 281.632 11.0621 281.45 11.0621C280.794 11.0621 280.513 10.7457 280.513 10.0016V6.42737H281.978V5.58362H280.513V4.00745H279.505ZM283.014 7.31213C283.014 8.2262 283.553 8.73596 284.736 9.02307L285.82 9.28674C286.494 9.45081 286.822 9.74377 286.822 10.1774C286.822 10.7574 286.213 11.1617 285.363 11.1617C284.555 11.1617 284.051 10.8219 283.881 10.2887H282.844C282.955 11.3375 283.922 12.0114 285.328 12.0114C286.764 12.0114 287.859 11.2321 287.859 10.1012C287.859 9.19299 287.285 8.67737 286.096 8.39026L285.123 8.15588C284.379 7.97424 284.027 7.70471 284.027 7.27112C284.027 6.70862 284.613 6.32776 285.363 6.32776C286.125 6.32776 286.617 6.66174 286.752 7.16565H287.748C287.613 6.12854 286.693 5.47229 285.369 5.47229C284.027 5.47229 283.014 6.26331 283.014 7.31213ZM3.28711 27.0114C4.16016 27.0114 4.91016 26.5953 5.30859 25.8922H5.40234V26.9H6.36328V18.0758H5.35547V21.5797H5.26758C4.91016 20.8883 4.16602 20.4723 3.28711 20.4723C1.68164 20.4723 0.632812 21.7614 0.632812 23.7418C0.632812 25.7281 1.66992 27.0114 3.28711 27.0114ZM3.52148 21.3805C4.66406 21.3805 5.37891 22.2946 5.37891 23.7418C5.37891 25.2008 4.66992 26.1031 3.52148 26.1031C2.36719 26.1031 1.67578 25.2184 1.67578 23.7418C1.67578 22.2711 2.37305 21.3805 3.52148 21.3805ZM10.6748 21.3629C11.6768 21.3629 12.3448 22.1012 12.3682 23.2203H8.88773C8.96391 22.1012 9.66703 21.3629 10.6748 21.3629ZM12.3389 25.2653C12.0752 25.8219 11.5245 26.1207 10.71 26.1207C9.63773 26.1207 8.94047 25.3297 8.88773 24.0817V24.0348H13.4288V23.6481C13.4288 21.6852 12.3916 20.4723 10.6866 20.4723C8.95219 20.4723 7.83891 21.7614 7.83891 23.7477C7.83891 25.7457 8.93461 27.0114 10.6866 27.0114C12.0694 27.0114 13.042 26.3492 13.3467 25.2653H12.3389ZM22.8898 20.2262H22.9601L24.9054 26.9H25.9015L28.2042 18.4449H27.1027L25.421 25.318H25.3507L23.4581 18.4449H22.3917L20.4991 25.318H20.4288L18.7472 18.4449H17.6456L19.9484 26.9H20.9445L22.8898 20.2262ZM31.4494 21.3629C32.4513 21.3629 33.1193 22.1012 33.1427 23.2203H29.6623C29.7384 22.1012 30.4416 21.3629 31.4494 21.3629ZM33.1134 25.2653C32.8498 25.8219 32.299 26.1207 31.4845 26.1207C30.4123 26.1207 29.715 25.3297 29.6623 24.0817V24.0348H34.2033V23.6481C34.2033 21.6852 33.1662 20.4723 31.4611 20.4723C29.7267 20.4723 28.6134 21.7614 28.6134 23.7477C28.6134 25.7457 29.7091 27.0114 31.4611 27.0114C32.8439 27.0114 33.8166 26.3492 34.1213 25.2653H33.1134ZM38.7609 27.0114C40.3605 27.0114 41.4094 25.7164 41.4094 23.7418C41.4094 21.7555 40.3664 20.4723 38.7609 20.4723C37.8937 20.4723 37.1262 20.9 36.7805 21.5797H36.6867V18.0758H35.6789V26.9H36.6398V25.8922H36.7336C37.132 26.5953 37.882 27.0114 38.7609 27.0114ZM38.5266 21.3805C39.6809 21.3805 40.3664 22.2653 40.3664 23.7418C40.3664 25.2184 39.6809 26.1031 38.5266 26.1031C37.3781 26.1031 36.6633 25.2008 36.6633 23.7418C36.6633 22.2828 37.3781 21.3805 38.5266 21.3805ZM45.9895 20.8239V20.8297H47.0091V20.8239C47.0091 19.8278 47.677 19.1656 48.6673 19.1656C49.5989 19.1656 50.3196 19.816 50.3196 20.6598C50.3196 21.3395 50.0559 21.7965 48.9661 22.9801L46.0423 26.1735V26.9H51.5149V25.9508H47.554V25.8571L49.5872 23.6715C50.9759 22.1832 51.3743 21.4977 51.3743 20.6188C51.3743 19.277 50.2141 18.2457 48.6966 18.2457C47.1263 18.2457 45.9895 19.3239 45.9895 20.8239ZM56.6869 18.4391L56.7865 24.0875H57.7591L57.8587 18.4391H56.6869ZM56.4642 26.191C56.4642 26.6656 56.8041 27.0055 57.2787 27.0055C57.7533 27.0055 58.0873 26.6656 58.0873 26.191C58.0873 25.7106 57.7533 25.3707 57.2787 25.3707C56.8041 25.3707 56.4642 25.7106 56.4642 26.191ZM64.3373 26.9V18.4449H63.2827V26.9H64.3373ZM66.2583 26.9H67.2661V18.0758H66.2583V26.9ZM68.9116 22.3121C68.9116 23.2262 69.4507 23.736 70.6343 24.0231L71.7183 24.2867C72.3921 24.4508 72.7202 24.7438 72.7202 25.1774C72.7202 25.7574 72.1109 26.1617 71.2613 26.1617C70.4527 26.1617 69.9488 25.8219 69.7788 25.2887H68.7417C68.8531 26.3375 69.8198 27.0114 71.2261 27.0114C72.6616 27.0114 73.7573 26.2321 73.7573 25.1012C73.7573 24.193 73.1831 23.6774 71.9937 23.3903L71.021 23.1559C70.2769 22.9742 69.9253 22.7047 69.9253 22.2711C69.9253 21.7086 70.5113 21.3278 71.2613 21.3278C72.023 21.3278 72.5152 21.6617 72.6499 22.1656H73.646C73.5113 21.1285 72.5913 20.4723 71.2671 20.4723C69.9253 20.4723 68.9116 21.2633 68.9116 22.3121ZM80.9918 26.1031C79.7965 26.1031 79.1227 25.236 79.1227 23.7418C79.1227 22.2418 79.7965 21.3805 80.9918 21.3805C82.1871 21.3805 82.8609 22.2418 82.8609 23.7418C82.8609 25.236 82.1871 26.1031 80.9918 26.1031ZM80.9918 27.0114C82.7906 27.0114 83.9039 25.7692 83.9039 23.7418C83.9039 21.7086 82.7906 20.4723 80.9918 20.4723C79.193 20.4723 78.0797 21.7086 78.0797 23.7418C78.0797 25.7692 79.193 27.0114 80.9918 27.0114ZM85.3209 26.9H86.3288V23.1617C86.3288 22.0543 86.9967 21.3805 88.1041 21.3805C89.112 21.3805 89.5924 21.9196 89.5924 23.0563V26.9H90.6002V22.8102C90.6002 21.3102 89.8092 20.4723 88.3913 20.4723C87.4245 20.4723 86.692 20.8824 86.3756 21.5797H86.2819V20.5836H85.3209V26.9ZM92.7028 19.0074V20.5836H91.6423V21.4274H92.7028V25.2594C92.7028 26.4664 93.2243 26.9469 94.5251 26.9469C94.7243 26.9469 94.9059 26.9235 95.1052 26.8883V26.0387C94.9177 26.0563 94.8298 26.0621 94.6481 26.0621C93.9919 26.0621 93.7106 25.7457 93.7106 25.0016V21.4274H95.1755V20.5836H93.7106V19.0074H92.7028ZM100.119 19.0074V20.5836H99.0584V21.4274H100.119V25.2594C100.119 26.4664 100.64 26.9469 101.941 26.9469C102.14 26.9469 102.322 26.9235 102.521 26.8883V26.0387C102.334 26.0563 102.246 26.0621 102.064 26.0621C101.408 26.0621 101.127 25.7457 101.127 25.0016V21.4274H102.592V20.5836H101.127V19.0074H100.119ZM106.317 21.3629C107.319 21.3629 107.987 22.1012 108.011 23.2203H104.53C104.606 22.1012 105.309 21.3629 106.317 21.3629ZM107.981 25.2653C107.718 25.8219 107.167 26.1207 106.352 26.1207C105.28 26.1207 104.583 25.3297 104.53 24.0817V24.0348H109.071V23.6481C109.071 21.6852 108.034 20.4723 106.329 20.4723C104.595 20.4723 103.481 21.7614 103.481 23.7477C103.481 25.7457 104.577 27.0114 106.329 27.0114C107.712 27.0114 108.684 26.3492 108.989 25.2653H107.981ZM110.547 26.9H111.555V18.0758H110.547V26.9ZM113.405 26.9H114.413V18.0758H113.405V26.9ZM118.725 21.3629C119.726 21.3629 120.394 22.1012 120.418 23.2203H116.937C117.014 22.1012 117.717 21.3629 118.725 21.3629ZM120.389 25.2653C120.125 25.8219 119.574 26.1207 118.76 26.1207C117.687 26.1207 116.99 25.3297 116.937 24.0817V24.0348H121.478V23.6481C121.478 21.6852 120.441 20.4723 118.736 20.4723C117.002 20.4723 115.889 21.7614 115.889 23.7477C115.889 25.7457 116.984 27.0114 118.736 27.0114C120.119 27.0114 121.092 26.3492 121.396 25.2653H120.389ZM122.895 26.9H123.903V22.986C123.903 22.0953 124.542 21.3805 125.368 21.3805C126.165 21.3805 126.686 21.861 126.686 22.611V26.9H127.694V22.8395C127.694 22.0367 128.28 21.3805 129.159 21.3805C130.05 21.3805 130.489 21.8375 130.489 22.7692V26.9H131.497V22.5348C131.497 21.2106 130.776 20.4723 129.487 20.4723C128.614 20.4723 127.894 20.9117 127.554 21.5797H127.46C127.167 20.9235 126.569 20.4723 125.714 20.4723C124.87 20.4723 124.237 20.8766 123.95 21.5797H123.856V20.5836H122.895V26.9ZM135.691 21.3629C136.693 21.3629 137.361 22.1012 137.385 23.2203H133.904C133.98 22.1012 134.684 21.3629 135.691 21.3629ZM137.355 25.2653C137.092 25.8219 136.541 26.1207 135.727 26.1207C134.654 26.1207 133.957 25.3297 133.904 24.0817V24.0348H138.445V23.6481C138.445 21.6852 137.408 20.4723 135.703 20.4723C133.969 20.4723 132.855 21.7614 132.855 23.7477C132.855 25.7457 133.951 27.0114 135.703 27.0114C137.086 27.0114 138.059 26.3492 138.363 25.2653H137.355ZM139.862 26.9H140.87V23.1617C140.87 22.0543 141.538 21.3805 142.646 21.3805C143.653 21.3805 144.134 21.9196 144.134 23.0563V26.9H145.142V22.8102C145.142 21.3102 144.351 20.4723 142.933 20.4723C141.966 20.4723 141.233 20.8824 140.917 21.5797H140.823V20.5836H139.862V26.9ZM147.244 19.0074V20.5836H146.184V21.4274H147.244V25.2594C147.244 26.4664 147.766 26.9469 149.066 26.9469C149.266 26.9469 149.447 26.9235 149.647 26.8883V26.0387C149.459 26.0563 149.371 26.0621 149.19 26.0621C148.533 26.0621 148.252 25.7457 148.252 25.0016V21.4274H149.717V20.5836H148.252V19.0074H147.244ZM157.315 20.4723C156.453 20.4723 155.697 20.9117 155.293 21.6383H155.199V20.5836H154.238V29.0094H155.246V25.9508H155.34C155.686 26.6188 156.412 27.0114 157.315 27.0114C158.92 27.0114 159.969 25.7164 159.969 23.7418C159.969 21.7555 158.926 20.4723 157.315 20.4723ZM157.074 26.1031C155.938 26.1031 155.217 25.1891 155.217 23.7418C155.217 22.2887 155.938 21.3805 157.08 21.3805C158.235 21.3805 158.926 22.2653 158.926 23.7418C158.926 25.2184 158.235 26.1031 157.074 26.1031ZM161.386 26.9H162.394V22.986C162.394 22.0953 163.091 21.4508 164.052 21.4508C164.251 21.4508 164.614 21.486 164.696 21.5094V20.5016C164.568 20.484 164.357 20.4723 164.193 20.4723C163.355 20.4723 162.628 20.9059 162.441 21.5211H162.347V20.5836H161.386V26.9ZM168.211 26.1031C167.016 26.1031 166.342 25.236 166.342 23.7418C166.342 22.2418 167.016 21.3805 168.211 21.3805C169.406 21.3805 170.08 22.2418 170.08 23.7418C170.08 25.236 169.406 26.1031 168.211 26.1031ZM168.211 27.0114C170.01 27.0114 171.123 25.7692 171.123 23.7418C171.123 21.7086 170.01 20.4723 168.211 20.4723C166.412 20.4723 165.299 21.7086 165.299 23.7418C165.299 25.7692 166.412 27.0114 168.211 27.0114ZM176.97 23.6481C176.97 25.025 176.267 25.9156 175.095 25.9156C173.923 25.9156 173.267 25.025 173.267 23.6481C173.267 22.2711 173.923 21.3805 175.095 21.3805C176.261 21.3805 176.97 22.2711 176.97 23.6481ZM175.142 29.3258C176.865 29.3258 177.954 28.4235 177.954 27.0114V20.5836H176.993V21.5856H176.9C176.536 20.9059 175.757 20.4723 174.872 20.4723C173.249 20.4723 172.224 21.7555 172.224 23.6481C172.224 25.5406 173.238 26.8063 174.872 26.8063C175.74 26.8063 176.454 26.4137 176.853 25.7164H176.947V26.9586C176.947 27.8903 176.273 28.4469 175.142 28.4469C174.234 28.4469 173.671 28.1129 173.56 27.5973H172.493C172.646 28.6403 173.618 29.3258 175.142 29.3258ZM179.688 26.9H180.696V22.986C180.696 22.0953 181.393 21.4508 182.354 21.4508C182.553 21.4508 182.916 21.486 182.998 21.5094V20.5016C182.869 20.484 182.659 20.4723 182.494 20.4723C181.657 20.4723 180.93 20.9059 180.742 21.5211H180.649V20.5836H179.688V26.9ZM186.437 21.3629C187.439 21.3629 188.107 22.1012 188.13 23.2203H184.65C184.726 22.1012 185.429 21.3629 186.437 21.3629ZM188.101 25.2653C187.837 25.8219 187.286 26.1207 186.472 26.1207C185.4 26.1207 184.702 25.3297 184.65 24.0817V24.0348H189.191V23.6481C189.191 21.6852 188.154 20.4723 186.449 20.4723C184.714 20.4723 183.601 21.7614 183.601 23.7477C183.601 25.7457 184.697 27.0114 186.449 27.0114C187.831 27.0114 188.804 26.3492 189.109 25.2653H188.101ZM190.461 22.3121C190.461 23.2262 191 23.736 192.184 24.0231L193.268 24.2867C193.942 24.4508 194.27 24.7438 194.27 25.1774C194.27 25.7574 193.661 26.1617 192.811 26.1617C192.002 26.1617 191.498 25.8219 191.329 25.2887H190.291C190.403 26.3375 191.37 27.0114 192.776 27.0114C194.211 27.0114 195.307 26.2321 195.307 25.1012C195.307 24.193 194.733 23.6774 193.543 23.3903L192.571 23.1559C191.827 22.9742 191.475 22.7047 191.475 22.2711C191.475 21.7086 192.061 21.3278 192.811 21.3278C193.573 21.3278 194.065 21.6617 194.2 22.1656H195.196C195.061 21.1285 194.141 20.4723 192.817 20.4723C191.475 20.4723 190.461 21.2633 190.461 22.3121ZM196.46 22.3121C196.46 23.2262 196.999 23.736 198.183 24.0231L199.267 24.2867C199.941 24.4508 200.269 24.7438 200.269 25.1774C200.269 25.7574 199.66 26.1617 198.81 26.1617C198.001 26.1617 197.497 25.8219 197.328 25.2887H196.29C196.402 26.3375 197.369 27.0114 198.775 27.0114C200.21 27.0114 201.306 26.2321 201.306 25.1012C201.306 24.193 200.732 23.6774 199.542 23.3903L198.57 23.1559C197.826 22.9742 197.474 22.7047 197.474 22.2711C197.474 21.7086 198.06 21.3278 198.81 21.3278C199.572 21.3278 200.064 21.6617 200.199 22.1656H201.195C201.06 21.1285 200.14 20.4723 198.816 20.4723C197.474 20.4723 196.46 21.2633 196.46 22.3121ZM205.243 21.3629C206.245 21.3629 206.913 22.1012 206.936 23.2203H203.456C203.532 22.1012 204.235 21.3629 205.243 21.3629ZM206.907 25.2653C206.643 25.8219 206.092 26.1207 205.278 26.1207C204.206 26.1207 203.508 25.3297 203.456 24.0817V24.0348H207.997V23.6481C207.997 21.6852 206.959 20.4723 205.254 20.4723C203.52 20.4723 202.407 21.7614 202.407 23.7477C202.407 25.7457 203.502 27.0114 205.254 27.0114C206.637 27.0114 207.61 26.3492 207.915 25.2653H206.907ZM204.586 19.4996H205.723L207.352 17.5192H206.063L204.586 19.4996ZM209.267 22.3121C209.267 23.2262 209.806 23.736 210.99 24.0231L212.074 24.2867C212.748 24.4508 213.076 24.7438 213.076 25.1774C213.076 25.7574 212.466 26.1617 211.617 26.1617C210.808 26.1617 210.304 25.8219 210.134 25.2887H209.097C209.209 26.3375 210.175 27.0114 211.582 27.0114C213.017 27.0114 214.113 26.2321 214.113 25.1012C214.113 24.193 213.539 23.6774 212.349 23.3903L211.376 23.1559C210.632 22.9742 210.281 22.7047 210.281 22.2711C210.281 21.7086 210.867 21.3278 211.617 21.3278C212.378 21.3278 212.871 21.6617 213.005 22.1656H214.001C213.867 21.1285 212.947 20.4723 211.623 20.4723C210.281 20.4723 209.267 21.2633 209.267 22.3121ZM221.089 27.0114C221.962 27.0114 222.712 26.5953 223.111 25.8922H223.205V26.9H224.166V18.0758H223.158V21.5797H223.07C222.712 20.8883 221.968 20.4723 221.089 20.4723C219.484 20.4723 218.435 21.7614 218.435 23.7418C218.435 25.7281 219.472 27.0114 221.089 27.0114ZM221.324 21.3805C222.466 21.3805 223.181 22.2946 223.181 23.7418C223.181 25.2008 222.472 26.1031 221.324 26.1031C220.17 26.1031 219.478 25.2184 219.478 23.7418C219.478 22.2711 220.175 21.3805 221.324 21.3805ZM228.477 21.3629C229.479 21.3629 230.147 22.1012 230.171 23.2203H226.69C226.766 22.1012 227.469 21.3629 228.477 21.3629ZM230.141 25.2653C229.878 25.8219 229.327 26.1207 228.512 26.1207C227.44 26.1207 226.743 25.3297 226.69 24.0817V24.0348H231.231V23.6481C231.231 21.6852 230.194 20.4723 228.489 20.4723C226.755 20.4723 225.641 21.7614 225.641 23.7477C225.641 25.7457 226.737 27.0114 228.489 27.0114C229.872 27.0114 230.844 26.3492 231.149 25.2653H230.141ZM235.724 20.4723C234.863 20.4723 234.107 20.9117 233.703 21.6383H233.609V20.5836H232.648V29.0094H233.656V25.9508H233.75C234.095 26.6188 234.822 27.0114 235.724 27.0114C237.33 27.0114 238.379 25.7164 238.379 23.7418C238.379 21.7555 237.336 20.4723 235.724 20.4723ZM235.484 26.1031C234.347 26.1031 233.627 25.1891 233.627 23.7418C233.627 22.2887 234.347 21.3805 235.49 21.3805C236.644 21.3805 237.336 22.2653 237.336 23.7418C237.336 25.2184 236.644 26.1031 235.484 26.1031ZM245.022 20.5836H244.014V24.3219C244.014 25.4293 243.346 26.0914 242.233 26.0914C241.225 26.0914 240.745 25.5641 240.745 24.4274V20.5836H239.737V24.6735C239.737 26.1676 240.534 27.0114 241.952 27.0114C242.919 27.0114 243.651 26.6129 243.967 25.9098H244.061V26.9H245.022V20.5836ZM246.779 26.9H247.787V20.5836H246.779V26.9ZM247.283 19.3004C247.67 19.3004 247.986 18.984 247.986 18.5973C247.986 18.2106 247.67 17.8942 247.283 17.8942C246.896 17.8942 246.58 18.2106 246.58 18.5973C246.58 18.984 246.896 19.3004 247.283 19.3004ZM249.397 22.3121C249.397 23.2262 249.936 23.736 251.12 24.0231L252.204 24.2867C252.878 24.4508 253.206 24.7438 253.206 25.1774C253.206 25.7574 252.596 26.1617 251.747 26.1617C250.938 26.1617 250.434 25.8219 250.264 25.2887H249.227C249.339 26.3375 250.305 27.0114 251.712 27.0114C253.147 27.0114 254.243 26.2321 254.243 25.1012C254.243 24.193 253.669 23.6774 252.479 23.3903L251.507 23.1559C250.762 22.9742 250.411 22.7047 250.411 22.2711C250.411 21.7086 250.997 21.3278 251.747 21.3278C252.509 21.3278 253.001 21.6617 253.136 22.1656H254.132C253.997 21.1285 253.077 20.4723 251.753 20.4723C250.411 20.4723 249.397 21.2633 249.397 22.3121ZM258.94 26.9H259.948V18.0758H258.94V26.9ZM262.572 21.6031L263.492 18.4449H262.437L261.635 21.6031H262.572ZM266.427 26.1266C265.694 26.1266 265.149 25.7516 265.149 25.1071C265.149 24.4742 265.571 24.1403 266.532 24.0758L268.231 23.9645V24.5446C268.231 25.4469 267.464 26.1266 266.427 26.1266ZM266.239 27.0114C267.083 27.0114 267.774 26.6422 268.185 25.9684H268.278V26.9H269.239V22.5758C269.239 21.2633 268.378 20.4723 266.837 20.4723C265.489 20.4723 264.493 21.1403 264.358 22.1539H265.378C265.519 21.6559 266.046 21.3688 266.802 21.3688C267.745 21.3688 268.231 21.7965 268.231 22.5758V23.15L266.409 23.2614C264.938 23.3492 264.106 23.9996 264.106 25.1305C264.106 26.2848 265.015 27.0114 266.239 27.0114ZM270.938 26.9H271.945V23.1617C271.945 22.0543 272.613 21.3805 273.721 21.3805C274.729 21.3805 275.209 21.9196 275.209 23.0563V26.9H276.217V22.8102C276.217 21.3102 275.426 20.4723 274.008 20.4723C273.041 20.4723 272.309 20.8824 271.992 21.5797H271.898V20.5836H270.938V26.9ZM277.897 26.9H278.905V23.1617C278.905 22.0543 279.573 21.3805 280.681 21.3805C281.689 21.3805 282.169 21.9196 282.169 23.0563V26.9H283.177V22.8102C283.177 21.3102 282.386 20.4723 280.968 20.4723C280.001 20.4723 279.269 20.8824 278.952 21.5797H278.858V20.5836H277.897V26.9ZM287.377 21.3629C288.379 21.3629 289.047 22.1012 289.07 23.2203H285.59C285.666 22.1012 286.369 21.3629 287.377 21.3629ZM289.041 25.2653C288.777 25.8219 288.227 26.1207 287.412 26.1207C286.34 26.1207 285.643 25.3297 285.59 24.0817V24.0348H290.131V23.6481C290.131 21.6852 289.094 20.4723 287.389 20.4723C285.654 20.4723 284.541 21.7614 284.541 23.7477C284.541 25.7457 285.637 27.0114 287.389 27.0114C288.772 27.0114 289.744 26.3492 290.049 25.2653H289.041ZM286.721 19.4996H287.858L289.486 17.5192H288.197L286.721 19.4996ZM294.068 21.3629C295.069 21.3629 295.737 22.1012 295.761 23.2203H292.28C292.357 22.1012 293.06 21.3629 294.068 21.3629ZM295.732 25.2653C295.468 25.8219 294.917 26.1207 294.103 26.1207C293.03 26.1207 292.333 25.3297 292.28 24.0817V24.0348H296.821V23.6481C296.821 21.6852 295.784 20.4723 294.079 20.4723C292.345 20.4723 291.232 21.7614 291.232 23.7477C291.232 25.7457 292.327 27.0114 294.079 27.0114C295.462 27.0114 296.435 26.3492 296.739 25.2653H295.732ZM3.28711 41.0114C4.16016 41.0114 4.91016 40.5953 5.30859 39.8922H5.40234V40.9H6.36328V32.0758H5.35547V35.5797H5.26758C4.91016 34.8883 4.16602 34.4723 3.28711 34.4723C1.68164 34.4723 0.632812 35.7614 0.632812 37.7418C0.632812 39.7281 1.66992 41.0114 3.28711 41.0114ZM3.52148 35.3805C4.66406 35.3805 5.37891 36.2946 5.37891 37.7418C5.37891 39.2008 4.66992 40.1031 3.52148 40.1031C2.36719 40.1031 1.67578 39.2184 1.67578 37.7418C1.67578 36.2711 2.37305 35.3805 3.52148 35.3805ZM10.6748 35.3629C11.6768 35.3629 12.3448 36.1012 12.3682 37.2203H8.88773C8.96391 36.1012 9.66703 35.3629 10.6748 35.3629ZM12.3389 39.2653C12.0752 39.8219 11.5245 40.1207 10.71 40.1207C9.63773 40.1207 8.94047 39.3297 8.88773 38.0817V38.0348H13.4288V37.6481C13.4288 35.6852 12.3916 34.4723 10.6866 34.4723C8.95219 34.4723 7.83891 35.7614 7.83891 37.7477C7.83891 39.7457 8.93461 41.0114 10.6866 41.0114C12.0694 41.0114 13.042 40.3492 13.3467 39.2653H12.3389ZM14.8458 40.9H15.8536V36.986C15.8536 36.0953 16.5509 35.4508 17.5118 35.4508C17.711 35.4508 18.0743 35.486 18.1563 35.5094V34.5016C18.0274 34.484 17.8165 34.4723 17.6524 34.4723C16.8145 34.4723 16.088 34.9059 15.9005 35.5211H15.8067V34.5836H14.8458V40.9ZM19.2862 40.9H20.2941V37.1617C20.2941 36.0543 20.962 35.3805 22.0695 35.3805C23.0773 35.3805 23.5577 35.9196 23.5577 37.0563V40.9H24.5655V36.8102C24.5655 35.3102 23.7745 34.4723 22.3566 34.4723C21.3898 34.4723 20.6573 34.8824 20.3409 35.5797H20.2472V34.5836H19.2862V40.9ZM26.2697 40.9H27.2775V34.5836H26.2697V40.9ZM26.7736 33.3004C27.1603 33.3004 27.4767 32.984 27.4767 32.5973C27.4767 32.2106 27.1603 31.8942 26.7736 31.8942C26.3869 31.8942 26.0705 32.2106 26.0705 32.5973C26.0705 32.984 26.3869 33.3004 26.7736 33.3004ZM31.5539 35.3629C32.5559 35.3629 33.2238 36.1012 33.2473 37.2203H29.7668C29.843 36.1012 30.5461 35.3629 31.5539 35.3629ZM33.218 39.2653C32.9543 39.8219 32.4035 40.1207 31.5891 40.1207C30.5168 40.1207 29.8195 39.3297 29.7668 38.0817V38.0348H34.3078V37.6481C34.3078 35.6852 33.2707 34.4723 31.5656 34.4723C29.8312 34.4723 28.718 35.7614 28.718 37.7477C28.718 39.7457 29.8137 41.0114 31.5656 41.0114C32.9484 41.0114 33.9211 40.3492 34.2258 39.2653H33.218ZM32.2805 33.4996L30.8039 31.5192H29.5148L31.1437 33.4996H32.2805ZM35.7248 40.9H36.7327V36.986C36.7327 36.0953 37.4299 35.4508 38.3909 35.4508C38.5901 35.4508 38.9534 35.486 39.0354 35.5094V34.5016C38.9065 34.484 38.6955 34.4723 38.5315 34.4723C37.6936 34.4723 36.967 34.9059 36.7795 35.5211H36.6858V34.5836H35.7248V40.9ZM42.4739 35.3629C43.4759 35.3629 44.1438 36.1012 44.1673 37.2203H40.6868C40.763 36.1012 41.4661 35.3629 42.4739 35.3629ZM44.138 39.2653C43.8743 39.8219 43.3235 40.1207 42.5091 40.1207C41.4368 40.1207 40.7395 39.3297 40.6868 38.0817V38.0348H45.2278V37.6481C45.2278 35.6852 44.1907 34.4723 42.4856 34.4723C40.7513 34.4723 39.638 35.7614 39.638 37.7477C39.638 39.7457 40.7337 41.0114 42.4856 41.0114C43.8684 41.0114 44.8411 40.3492 45.1458 39.2653H44.138ZM50.1947 32.4391L50.2943 38.0875H51.267L51.3666 32.4391H50.1947ZM49.972 40.191C49.972 40.6656 50.3119 41.0055 50.7865 41.0055C51.2611 41.0055 51.5951 40.6656 51.5951 40.191C51.5951 39.7106 51.2611 39.3707 50.7865 39.3707C50.3119 39.3707 49.972 39.7106 49.972 40.191Z" fill="black"/>
<path d="M62.8373 35.7321L63.0366 34.6949H61.7827L62.2514 32.4449H61.2436L60.7807 34.6949H59.1401L59.5971 32.4449H58.5952L58.1323 34.6949H56.8901L56.6909 35.7321H57.933L57.5639 37.5133H56.3159L56.1108 38.5563H57.3588L56.8784 40.9H57.8803L58.3608 38.5563H60.0073L59.5209 40.9H60.5288L61.0092 38.5563H62.2631L62.4565 37.5133H61.2084L61.5834 35.7321H62.8373ZM58.9057 35.6793H60.6225L60.2299 37.5778H58.519L58.9057 35.6793ZM64.3423 32.4449V40.9H65.6548V38.0524H67.6118C69.27 38.0524 70.4419 36.9156 70.4419 35.2633C70.4419 33.5875 69.3052 32.4449 67.6528 32.4449H64.3423ZM65.6548 33.6051H67.3071C68.4614 33.6051 69.1001 34.191 69.1001 35.2633C69.1001 36.3121 68.438 36.8981 67.3071 36.8981H65.6548V33.6051ZM71.8238 40.9H73.0835V37.1324C73.0835 36.236 73.7573 35.6324 74.7066 35.6324C74.9175 35.6324 75.3042 35.6735 75.4038 35.7086V34.4664C75.2691 34.4313 75.0288 34.4137 74.8472 34.4137C74.0152 34.4137 73.312 34.8707 73.1304 35.4977H73.0366V34.5192H71.8238V40.9ZM78.983 39.9039C77.8873 39.9039 77.272 39.1012 77.272 37.7067C77.272 36.3239 77.8873 35.5153 78.983 35.5153C80.0728 35.5153 80.6939 36.3239 80.6939 37.7067C80.6939 39.0953 80.0728 39.9039 78.983 39.9039ZM78.983 41.0231C80.8463 41.0231 81.9888 39.775 81.9888 37.7067C81.9888 35.65 80.8404 34.3961 78.983 34.3961C77.1197 34.3961 75.9713 35.65 75.9713 37.7067C75.9713 39.775 77.1138 41.0231 78.983 41.0231ZM88.8434 34.5192H87.5895V38.2516C87.5895 39.2535 86.9625 39.8571 85.9488 39.8571C85.0172 39.8571 84.5426 39.3649 84.5426 38.3336V34.5192H83.2828V38.65C83.2828 40.1617 84.1207 41.0231 85.5387 41.0231C86.4996 41.0231 87.2262 40.6129 87.5367 39.8864H87.6363V40.9H88.8434V34.5192ZM92.8444 41.0055C93.7233 41.0055 94.4674 40.5895 94.8483 39.8922H94.9479V40.9H96.1549V32.0289H94.8952V35.5328H94.8014C94.4557 34.8297 93.7174 34.4137 92.8444 34.4137C91.233 34.4137 90.1959 35.691 90.1959 37.7067C90.1959 39.7281 91.2213 41.0055 92.8444 41.0055ZM93.2018 35.5446C94.2565 35.5446 94.9186 36.3824 94.9186 37.7125C94.9186 39.0485 94.2623 39.8746 93.2018 39.8746C92.1354 39.8746 91.4967 39.0602 91.4967 37.7067C91.4967 36.3649 92.1413 35.5446 93.2018 35.5446Z" fill="#3EA9E5"/>
<path d="M4.18408 59.9L7.0415 52.1495H6.02637L3.74902 58.6486H3.66309L1.38574 52.1495H0.370605L3.22803 59.9H4.18408ZM9.95951 59.1696C8.86381 59.1696 8.24613 58.3746 8.24613 57.005C8.24613 55.63 8.86381 54.8405 9.95951 54.8405C11.0552 54.8405 11.6729 55.63 11.6729 57.005C11.6729 58.3746 11.0552 59.1696 9.95951 59.1696ZM9.95951 60.0021C11.6084 60.0021 12.6289 58.8634 12.6289 57.005C12.6289 55.1412 11.6084 54.0079 9.95951 54.0079C8.31059 54.0079 7.29008 55.1412 7.29008 57.005C7.29008 58.8634 8.31059 60.0021 9.95951 60.0021ZM13.9356 59.9H14.8595V54.11H13.9356V59.9ZM14.3975 52.9337C14.752 52.9337 15.0421 52.6437 15.0421 52.2892C15.0421 51.9347 14.752 51.6447 14.3975 51.6447C14.043 51.6447 13.753 51.9347 13.753 52.2892C13.753 52.6437 14.043 52.9337 14.3975 52.9337ZM16.4562 59.9H17.38V56.3121C17.38 55.4957 18.0192 54.9049 18.9 54.9049C19.0826 54.9049 19.4156 54.9371 19.4908 54.9586V54.0348C19.3727 54.0187 19.1793 54.0079 19.0289 54.0079C18.2609 54.0079 17.5948 54.4054 17.423 54.9694H17.337V54.11H16.4562V59.9ZM23.3986 59.9H24.3225V51.8112H23.3986V59.9ZM28.261 54.8243C29.1794 54.8243 29.7917 55.5011 29.8132 56.527H26.6228C26.6926 55.5011 27.3371 54.8243 28.261 54.8243ZM29.7864 58.4015C29.5447 58.9117 29.0398 59.1857 28.2932 59.1857C27.3103 59.1857 26.6711 58.4606 26.6228 57.3165V57.2736H30.7854V56.9191C30.7854 55.1198 29.8347 54.0079 28.2717 54.0079C26.6819 54.0079 25.6614 55.1896 25.6614 57.0104C25.6614 58.8419 26.6658 60.0021 28.2717 60.0021C29.5393 60.0021 30.4309 59.3951 30.7102 58.4015H29.7864ZM31.9363 55.6945C31.9363 56.5323 32.4304 56.9996 33.5154 57.2628L34.5091 57.5045C35.1267 57.6549 35.4275 57.9235 35.4275 58.3209C35.4275 58.8527 34.8689 59.2233 34.0901 59.2233C33.3489 59.2233 32.887 58.9117 32.7312 58.423H31.7805C31.8826 59.3844 32.7688 60.0021 34.0579 60.0021C35.3738 60.0021 36.3782 59.2877 36.3782 58.2511C36.3782 57.4186 35.8518 56.9459 34.7615 56.6827L33.8699 56.4679C33.1878 56.3014 32.8655 56.0543 32.8655 55.6569C32.8655 55.1412 33.4026 54.7921 34.0901 54.7921C34.7884 54.7921 35.2395 55.0983 35.3631 55.5602H36.2762C36.1526 54.6095 35.3094 54.0079 34.0955 54.0079C32.8655 54.0079 31.9363 54.733 31.9363 55.6945ZM42.4505 59.9H43.4173V52.1495H42.4559L40.3934 53.632V54.6525L42.3646 53.2238H42.4505V59.9ZM48.1723 60.0826C49.9125 60.0826 50.9115 58.611 50.9115 56.0382C50.9115 53.4708 49.8964 51.9669 48.1723 51.9669C46.4374 51.9669 45.4223 53.4655 45.4223 56.0221C45.4223 58.6002 46.4267 60.0826 48.1723 60.0826ZM48.1723 59.2394C47.0282 59.2394 46.3944 58.0953 46.3944 56.0221C46.3944 53.9757 47.039 52.8156 48.1723 52.8156C49.3056 52.8156 49.9394 53.965 49.9394 56.0221C49.9394 58.1007 49.3163 59.2394 48.1723 59.2394ZM60.0669 55.8824C59.9057 54.8512 59.0464 54.0079 57.6391 54.0079C56.0171 54.0079 54.9858 55.1788 54.9858 56.9835C54.9858 58.8258 56.0224 60.0021 57.6445 60.0021C59.0356 60.0021 59.9004 59.2179 60.0669 58.1544H59.1323C58.9604 58.8097 58.4179 59.1696 57.6391 59.1696C56.6079 59.1696 55.9419 58.3209 55.9419 56.9835C55.9419 55.673 56.5971 54.8405 57.6391 54.8405C58.4717 54.8405 58.9819 55.3077 59.1323 55.8824H60.0669ZM63.6455 59.1696C62.5498 59.1696 61.9321 58.3746 61.9321 57.005C61.9321 55.63 62.5498 54.8405 63.6455 54.8405C64.7412 54.8405 65.3589 55.63 65.3589 57.005C65.3589 58.3746 64.7412 59.1696 63.6455 59.1696ZM63.6455 60.0021C65.2945 60.0021 66.315 58.8634 66.315 57.005C66.315 55.1412 65.2945 54.0079 63.6455 54.0079C61.9966 54.0079 60.9761 55.1412 60.9761 57.005C60.9761 58.8634 61.9966 60.0021 63.6455 60.0021ZM67.6002 59.9H68.524V56.3121C68.524 55.4957 69.1094 54.8405 69.8668 54.8405C70.5972 54.8405 71.0753 55.2809 71.0753 55.9684V59.9H71.9991V56.1779C71.9991 55.442 72.5362 54.8405 73.3419 54.8405C74.1583 54.8405 74.5611 55.2594 74.5611 56.1134V59.9H75.4849V55.8986C75.4849 54.6847 74.8243 54.0079 73.6426 54.0079C72.8423 54.0079 72.1817 54.4108 71.8702 55.0231H71.7842C71.5157 54.4215 70.9678 54.0079 70.1837 54.0079C69.4102 54.0079 68.8301 54.3785 68.567 55.0231H68.481V54.11H67.6002V59.9ZM77.0064 59.9H77.9303V56.3121C77.9303 55.4957 78.5157 54.8405 79.273 54.8405C80.0035 54.8405 80.4815 55.2809 80.4815 55.9684V59.9H81.4054V56.1779C81.4054 55.442 81.9425 54.8405 82.7481 54.8405C83.5646 54.8405 83.9674 55.2594 83.9674 56.1134V59.9H84.8912V55.8986C84.8912 54.6847 84.2306 54.0079 83.0489 54.0079C82.2486 54.0079 81.588 54.4108 81.2765 55.0231H81.1905C80.922 54.4215 80.3741 54.0079 79.5899 54.0079C78.8165 54.0079 78.2364 54.3785 77.9732 55.0231H77.8873V54.11H77.0064V59.9ZM88.7223 54.8243C89.6408 54.8243 90.2531 55.5011 90.2746 56.527H87.0841C87.1539 55.5011 87.7985 54.8243 88.7223 54.8243ZM90.2477 58.4015C90.006 58.9117 89.5011 59.1857 88.7545 59.1857C87.7716 59.1857 87.1325 58.4606 87.0841 57.3165V57.2736H91.2467V56.9191C91.2467 55.1198 90.296 54.0079 88.733 54.0079C87.1432 54.0079 86.1227 55.1896 86.1227 57.0104C86.1227 58.8419 87.1271 60.0021 88.733 60.0021C90.0006 60.0021 90.8922 59.3951 91.1715 58.4015H90.2477ZM92.5319 59.9H93.4557V56.4733C93.4557 55.4581 94.068 54.8405 95.0832 54.8405C96.007 54.8405 96.4474 55.3346 96.4474 56.3766V59.9H97.3713V56.151C97.3713 54.776 96.6462 54.0079 95.3464 54.0079C94.4601 54.0079 93.7887 54.3839 93.4987 55.0231H93.4128V54.11H92.5319V59.9ZM99.2849 52.6652V54.11H98.3127V54.8834H99.2849V58.3961C99.2849 59.5026 99.7629 59.943 100.955 59.943C101.138 59.943 101.304 59.9215 101.487 59.8893V59.1105C101.315 59.1266 101.235 59.132 101.068 59.132C100.467 59.132 100.209 58.8419 100.209 58.1598V54.8834H101.551V54.11H100.209V52.6652H99.2849ZM104.512 59.191C103.841 59.191 103.342 58.8473 103.342 58.2565C103.342 57.6764 103.728 57.3702 104.609 57.3112L106.167 57.2091V57.7408C106.167 58.568 105.463 59.191 104.512 59.191ZM104.341 60.0021C105.114 60.0021 105.748 59.6637 106.124 59.046H106.21V59.9H107.091V55.9362C107.091 54.733 106.301 54.0079 104.888 54.0079C103.653 54.0079 102.74 54.6202 102.616 55.5494H103.551C103.68 55.0929 104.163 54.8297 104.856 54.8297C105.721 54.8297 106.167 55.2218 106.167 55.9362V56.4625L104.496 56.5646C103.148 56.6451 102.386 57.2413 102.386 58.278C102.386 59.3361 103.218 60.0021 104.341 60.0021ZM108.655 59.9H109.579V54.11H108.655V59.9ZM109.117 52.9337C109.471 52.9337 109.762 52.6437 109.762 52.2892C109.762 51.9347 109.471 51.6447 109.117 51.6447C108.762 51.6447 108.472 51.9347 108.472 52.2892C108.472 52.6437 108.762 52.9337 109.117 52.9337ZM111.176 59.9H112.099V56.3121C112.099 55.4957 112.739 54.9049 113.619 54.9049C113.802 54.9049 114.135 54.9371 114.21 54.9586V54.0348C114.092 54.0187 113.899 54.0079 113.748 54.0079C112.98 54.0079 112.314 54.4054 112.142 54.9694H112.056V54.11H111.176V59.9ZM117.349 54.8243C118.267 54.8243 118.879 55.5011 118.901 56.527H115.71C115.78 55.5011 116.425 54.8243 117.349 54.8243ZM118.874 58.4015C118.632 58.9117 118.127 59.1857 117.381 59.1857C116.398 59.1857 115.759 58.4606 115.71 57.3165V57.2736H119.873V56.9191C119.873 55.1198 118.922 54.0079 117.359 54.0079C115.769 54.0079 114.749 55.1896 114.749 57.0104C114.749 58.8419 115.753 60.0021 117.359 60.0021C118.627 60.0021 119.518 59.3951 119.798 58.4015H118.874ZM121.024 55.6945C121.024 56.5323 121.518 56.9996 122.603 57.2628L123.597 57.5045C124.214 57.6549 124.515 57.9235 124.515 58.3209C124.515 58.8527 123.956 59.2233 123.178 59.2233C122.436 59.2233 121.975 58.9117 121.819 58.423H120.868C120.97 59.3844 121.856 60.0021 123.145 60.0021C124.461 60.0021 125.466 59.2877 125.466 58.2511C125.466 57.4186 124.939 56.9459 123.849 56.6827L122.957 56.4679C122.275 56.3014 121.953 56.0543 121.953 55.6569C121.953 55.1412 122.49 54.7921 123.178 54.7921C123.876 54.7921 124.327 55.0983 124.451 55.5602H125.364C125.24 54.6095 124.397 54.0079 123.183 54.0079C121.953 54.0079 121.024 54.733 121.024 55.6945Z" fill="black" fill-opacity="0.4"/>
</svg>
