<svg width="215" height="13" viewBox="0 0 215 13" fill="none" xmlns="http://www.w3.org/2000/svg">
<path d="M6.57422 9.90002H7.68164L4.56445 1.44495H3.52148L0.404297 9.90002H1.51172L2.36133 7.4801H5.72461L6.57422 9.90002ZM3.99609 2.81018H4.08984L5.41406 6.58362H2.67188L3.99609 2.81018ZM8.89359 9.90002H9.90141V3.58362H8.89359V9.90002ZM9.3975 2.30042C9.78422 2.30042 10.1006 1.98401 10.1006 1.59729C10.1006 1.21057 9.78422 0.894165 9.3975 0.894165C9.01078 0.894165 8.69438 1.21057 8.69438 1.59729C8.69438 1.98401 9.01078 2.30042 9.3975 2.30042ZM11.6583 9.90002H12.6661V5.98596C12.6661 5.09534 13.3048 4.38049 14.1309 4.38049C14.9278 4.38049 15.4493 4.86096 15.4493 5.61096V9.90002H16.4571V5.83948C16.4571 5.03674 17.043 4.38049 17.922 4.38049C18.8126 4.38049 19.252 4.83752 19.252 5.76917V9.90002H20.2598V5.53479C20.2598 4.21057 19.5391 3.47229 18.2501 3.47229C17.377 3.47229 16.6563 3.91174 16.3165 4.57971H16.2227C15.9298 3.92346 15.3321 3.47229 14.4766 3.47229C13.6329 3.47229 13.0001 3.87659 12.713 4.57971H12.6192V3.58362H11.6583V9.90002ZM24.4542 4.36292C25.4562 4.36292 26.1241 5.1012 26.1476 6.22034H22.6671C22.7433 5.1012 23.4464 4.36292 24.4542 4.36292ZM26.1183 8.26526C25.8546 8.8219 25.3038 9.12073 24.4894 9.12073C23.4171 9.12073 22.7198 8.32971 22.6671 7.08167V7.03479H27.2081V6.64807C27.2081 4.68518 26.171 3.47229 24.4659 3.47229C22.7316 3.47229 21.6183 4.76135 21.6183 6.74768C21.6183 8.74573 22.714 10.0114 24.4659 10.0114C25.8487 10.0114 26.8214 9.34924 27.1261 8.26526H26.1183ZM23.798 2.49963H24.9347L26.5636 0.519165H25.2745L23.798 2.49963ZM34.923 3.47229C34.0617 3.47229 33.3059 3.91174 32.9016 4.63831H32.8078V3.58362H31.8469V12.0094H32.8547V8.95081H32.9484C33.2941 9.61877 34.0207 10.0114 34.923 10.0114C36.5285 10.0114 37.5773 8.71643 37.5773 6.74182C37.5773 4.75549 36.5344 3.47229 34.923 3.47229ZM34.6828 9.10315C33.5461 9.10315 32.8254 8.18909 32.8254 6.74182C32.8254 5.2887 33.5461 4.38049 34.6887 4.38049C35.843 4.38049 36.5344 5.26526 36.5344 6.74182C36.5344 8.21838 35.843 9.10315 34.6828 9.10315ZM40.9397 9.12659C40.2073 9.12659 39.6623 8.75159 39.6623 8.10706C39.6623 7.47424 40.0842 7.14026 41.0452 7.07581L42.7444 6.96448V7.54456C42.7444 8.4469 41.9768 9.12659 40.9397 9.12659ZM40.7522 10.0114C41.5959 10.0114 42.2873 9.64221 42.6975 8.96838H42.7912V9.90002H43.7522V5.57581C43.7522 4.26331 42.8909 3.47229 41.3498 3.47229C40.0022 3.47229 39.0061 4.14026 38.8713 5.15393H39.8909C40.0315 4.65588 40.5588 4.36877 41.3147 4.36877C42.258 4.36877 42.7444 4.79651 42.7444 5.57581V6.15002L40.9221 6.26135C39.4514 6.34924 38.6194 6.99963 38.6194 8.13049C38.6194 9.28479 39.5276 10.0114 40.7522 10.0114ZM45.4505 9.90002H46.4583V5.98596C46.4583 5.09534 47.1555 4.45081 48.1165 4.45081C48.3157 4.45081 48.679 4.48596 48.761 4.5094V3.50159C48.6321 3.48401 48.4212 3.47229 48.2571 3.47229C47.4192 3.47229 46.6927 3.90588 46.5052 4.52112H46.4114V3.58362H45.4505V9.90002ZM60.2142 6.55432V5.49963H56.7455V6.6012H58.9252V6.78284C58.9134 8.03674 57.9642 8.88049 56.5814 8.88049C54.9935 8.88049 53.9974 7.65002 53.9974 5.65784C53.9974 3.70081 54.9877 2.46448 56.5521 2.46448C57.7064 2.46448 58.5091 3.02112 58.8373 4.04065H60.1556C59.8685 2.32971 58.474 1.23987 56.5521 1.23987C54.1849 1.23987 52.6556 2.97424 52.6556 5.66956C52.6556 8.40002 54.1673 10.1051 56.5638 10.1051C58.7787 10.1051 60.2142 8.71643 60.2142 6.55432ZM63.7758 8.94495C63.0902 8.94495 62.5922 8.61096 62.5922 8.03674C62.5922 7.47424 62.9906 7.17542 63.8695 7.11682L65.4281 7.01721V7.55042C65.4281 8.34143 64.725 8.94495 63.7758 8.94495ZM63.4535 10.0055C64.2914 10.0055 64.9887 9.64221 65.3695 9.00354H65.4691V9.90002H66.682V5.54065C66.682 4.19299 65.7797 3.39612 64.1801 3.39612C62.7328 3.39612 61.7016 4.09924 61.5727 5.19495H62.7914C62.932 4.74377 63.4184 4.48596 64.1215 4.48596C64.9828 4.48596 65.4281 4.86682 65.4281 5.54065V6.09143L63.6996 6.19104C62.182 6.28479 61.3266 6.9469 61.3266 8.09534C61.3266 9.26135 62.223 10.0055 63.4535 10.0055ZM71.6909 10.0055C73.3022 10.0055 74.3276 8.72815 74.3276 6.70667C74.3276 4.67932 73.308 3.4137 71.6909 3.4137C70.8178 3.4137 70.0678 3.83557 69.728 4.53284H69.6284V1.02893H68.3686V9.90002H69.5815V8.89221H69.6752C70.0561 9.59534 70.8002 10.0055 71.6909 10.0055ZM71.3276 4.54456C72.394 4.54456 73.0327 5.36487 73.0327 6.70667C73.0327 8.06018 72.394 8.87463 71.3276 8.87463C70.267 8.87463 69.6108 8.04846 69.6049 6.71252C69.6108 5.37659 70.2729 4.54456 71.3276 4.54456ZM78.0122 10.0055C78.8911 10.0055 79.6352 9.58948 80.0161 8.89221H80.1157V9.90002H81.3227V1.02893H80.063V4.53284H79.9692C79.6235 3.82971 78.8852 3.4137 78.0122 3.4137C76.4009 3.4137 75.3637 4.69104 75.3637 6.70667C75.3637 8.72815 76.3891 10.0055 78.0122 10.0055ZM78.3696 4.54456C79.4243 4.54456 80.0864 5.38245 80.0864 6.71252C80.0864 8.04846 79.4302 8.87463 78.3696 8.87463C77.3032 8.87463 76.6645 8.06018 76.6645 6.70667C76.6645 5.36487 77.3091 4.54456 78.3696 4.54456ZM88.5523 3.51917H87.2984V7.25159C87.2984 8.25354 86.6714 8.85706 85.6577 8.85706C84.7261 8.85706 84.2515 8.36487 84.2515 7.33362V3.51917H82.9917V7.65002C82.9917 9.16174 83.8296 10.0231 85.2476 10.0231C86.2085 10.0231 86.9351 9.61292 87.2456 8.88635H87.3452V9.90002H88.5523V3.51917ZM95.9566 4.46838C96.8883 4.46838 97.4977 5.11877 97.527 6.12073H94.3043C94.3746 5.12463 95.025 4.46838 95.9566 4.46838ZM97.5211 8.17737C97.2867 8.67542 96.7652 8.95081 96.0035 8.95081C94.9957 8.95081 94.3453 8.24182 94.3043 7.12268V7.05237H98.8102V6.61292C98.8102 4.60901 97.7379 3.39612 95.9625 3.39612C94.1637 3.39612 93.0211 4.69104 93.0211 6.7301C93.0211 8.76917 94.1402 10.0231 95.9684 10.0231C97.4273 10.0231 98.4469 9.31995 98.734 8.17737H97.5211ZM100.602 1.97229V3.54846H99.5534V4.60901H100.602V8.21252C100.602 9.44299 101.159 9.93518 102.559 9.93518C102.805 9.93518 103.034 9.90588 103.233 9.87073V8.8219C103.057 8.83948 102.958 8.8512 102.764 8.8512C102.137 8.8512 101.862 8.55823 101.862 7.89026V4.60901H103.292V3.54846H101.862V1.97229H100.602ZM110.01 10.0055C110.889 10.0055 111.634 9.58948 112.014 8.89221H112.114V9.90002H113.321V1.02893H112.061V4.53284H111.967C111.622 3.82971 110.884 3.4137 110.01 3.4137C108.399 3.4137 107.362 4.69104 107.362 6.70667C107.362 8.72815 108.387 10.0055 110.01 10.0055ZM110.368 4.54456C111.423 4.54456 112.085 5.38245 112.085 6.71252C112.085 8.04846 111.428 8.87463 110.368 8.87463C109.301 8.87463 108.663 8.06018 108.663 6.70667C108.663 5.36487 109.307 4.54456 110.368 4.54456ZM116.086 4.79065L116.953 1.44495H115.699L114.955 4.79065H116.086ZM120.028 8.94495C119.343 8.94495 118.845 8.61096 118.845 8.03674C118.845 7.47424 119.243 7.17542 120.122 7.11682L121.68 7.01721V7.55042C121.68 8.34143 120.977 8.94495 120.028 8.94495ZM119.706 10.0055C120.544 10.0055 121.241 9.64221 121.622 9.00354H121.721V9.90002H122.934V5.54065C122.934 4.19299 122.032 3.39612 120.432 3.39612C118.985 3.39612 117.954 4.09924 117.825 5.19495H119.044C119.184 4.74377 119.671 4.48596 120.374 4.48596C121.235 4.48596 121.68 4.86682 121.68 5.54065V6.09143L119.952 6.19104C118.434 6.28479 117.579 6.9469 117.579 8.09534C117.579 9.26135 118.475 10.0055 119.706 10.0055ZM130.064 3.51917H128.81V7.25159C128.81 8.25354 128.183 8.85706 127.17 8.85706C126.238 8.85706 125.764 8.36487 125.764 7.33362V3.51917H124.504V7.65002C124.504 9.16174 125.342 10.0231 126.76 10.0231C127.721 10.0231 128.447 9.61292 128.758 8.88635H128.857V9.90002H130.064V3.51917ZM132.179 1.97229V3.54846H131.13V4.60901H132.179V8.21252C132.179 9.44299 132.735 9.93518 134.136 9.93518C134.382 9.93518 134.61 9.90588 134.809 9.87073V8.8219C134.634 8.83948 134.534 8.8512 134.341 8.8512C133.714 8.8512 133.438 8.55823 133.438 7.89026V4.60901H134.868V3.54846H133.438V1.97229H132.179ZM136.139 9.90002H137.398V6.13245C137.398 5.23596 138.072 4.63245 139.021 4.63245C139.232 4.63245 139.619 4.67346 139.719 4.70862V3.46643C139.584 3.43127 139.344 3.4137 139.162 3.4137C138.33 3.4137 137.627 3.87073 137.445 4.49768H137.351V3.51917H136.139V9.90002ZM143.222 4.46838C144.153 4.46838 144.763 5.11877 144.792 6.12073H141.569C141.64 5.12463 142.29 4.46838 143.222 4.46838ZM144.786 8.17737C144.552 8.67542 144.03 8.95081 143.269 8.95081C142.261 8.95081 141.61 8.24182 141.569 7.12268V7.05237H146.075V6.61292C146.075 4.60901 145.003 3.39612 143.227 3.39612C141.429 3.39612 140.286 4.69104 140.286 6.7301C140.286 8.76917 141.405 10.0231 143.233 10.0231C144.692 10.0231 145.712 9.31995 145.999 8.17737H144.786ZM147.275 5.32385C147.275 6.27307 147.838 6.81799 149.051 7.1051L150.164 7.36292C150.803 7.51526 151.102 7.76135 151.102 8.14221C151.102 8.65198 150.545 9.00354 149.76 9.00354C148.998 9.00354 148.529 8.69885 148.371 8.20667H147.111C147.223 9.33752 148.213 10.0231 149.73 10.0231C151.254 10.0231 152.373 9.22034 152.373 8.01917C152.373 7.08167 151.805 6.56018 150.592 6.27893L149.531 6.03284C148.84 5.87463 148.518 5.6344 148.518 5.25354C148.518 4.75549 149.051 4.42151 149.754 4.42151C150.469 4.42151 150.926 4.72034 151.043 5.18909H152.25C152.127 4.06409 151.189 3.39612 149.754 3.39612C148.312 3.39612 147.275 4.19299 147.275 5.32385ZM160.152 3.4137C159.285 3.4137 158.535 3.84729 158.149 4.57385H158.055V3.51917H156.842V11.9684H158.102V8.93323H158.201C158.535 9.60706 159.256 10.0055 160.164 10.0055C161.775 10.0055 162.801 8.73401 162.801 6.70667C162.801 4.67932 161.775 3.4137 160.152 3.4137ZM159.795 8.87463C158.74 8.87463 158.078 8.0426 158.078 6.71252C158.078 5.37659 158.74 4.54456 159.801 4.54456C160.867 4.54456 161.506 5.35901 161.506 6.70667C161.506 8.06018 160.867 8.87463 159.795 8.87463ZM166.773 4.46838C167.704 4.46838 168.314 5.11877 168.343 6.12073H165.12C165.191 5.12463 165.841 4.46838 166.773 4.46838ZM168.337 8.17737C168.103 8.67542 167.581 8.95081 166.819 8.95081C165.812 8.95081 165.161 8.24182 165.12 7.12268V7.05237H169.626V6.61292C169.626 4.60901 168.554 3.39612 166.778 3.39612C164.98 3.39612 163.837 4.69104 163.837 6.7301C163.837 8.76917 164.956 10.0231 166.784 10.0231C168.243 10.0231 169.263 9.31995 169.55 8.17737H168.337ZM170.973 9.90002H172.233V6.13245C172.233 5.23596 172.906 4.63245 173.856 4.63245C174.067 4.63245 174.453 4.67346 174.553 4.70862V3.46643C174.418 3.43127 174.178 3.4137 173.996 3.4137C173.164 3.4137 172.461 3.87073 172.279 4.49768H172.186V3.51917H170.973V9.90002ZM175.267 5.32385C175.267 6.27307 175.829 6.81799 177.042 7.1051L178.155 7.36292C178.794 7.51526 179.093 7.76135 179.093 8.14221C179.093 8.65198 178.536 9.00354 177.751 9.00354C176.989 9.00354 176.521 8.69885 176.363 8.20667H175.103C175.214 9.33752 176.204 10.0231 177.722 10.0231C179.245 10.0231 180.364 9.22034 180.364 8.01917C180.364 7.08167 179.796 6.56018 178.583 6.27893L177.523 6.03284C176.831 5.87463 176.509 5.6344 176.509 5.25354C176.509 4.75549 177.042 4.42151 177.745 4.42151C178.46 4.42151 178.917 4.72034 179.034 5.18909H180.241C180.118 4.06409 179.181 3.39612 177.745 3.39612C176.304 3.39612 175.267 4.19299 175.267 5.32385ZM184.412 8.90393C183.317 8.90393 182.701 8.1012 182.701 6.70667C182.701 5.32385 183.317 4.51526 184.412 4.51526C185.502 4.51526 186.123 5.32385 186.123 6.70667C186.123 8.09534 185.502 8.90393 184.412 8.90393ZM184.412 10.0231C186.276 10.0231 187.418 8.77502 187.418 6.70667C187.418 4.65002 186.27 3.39612 184.412 3.39612C182.549 3.39612 181.401 4.65002 181.401 6.70667C181.401 8.77502 182.543 10.0231 184.412 10.0231ZM188.771 9.90002H190.031V6.1676C190.031 5.17151 190.652 4.55042 191.665 4.55042C192.603 4.55042 193.06 5.06018 193.06 6.08557V9.90002H194.32V5.76917C194.32 4.25159 193.517 3.39612 192.093 3.39612C191.132 3.39612 190.388 3.82385 190.077 4.53284H189.984V3.51917H188.771V9.90002ZM195.93 9.90002H197.19V6.1676C197.19 5.17151 197.811 4.55042 198.825 4.55042C199.762 4.55042 200.219 5.06018 200.219 6.08557V9.90002H201.479V5.76917C201.479 4.25159 200.676 3.39612 199.252 3.39612C198.291 3.39612 197.547 3.82385 197.237 4.53284H197.143V3.51917H195.93V9.90002ZM205.708 4.46838C206.64 4.46838 207.249 5.11877 207.279 6.12073H204.056C204.126 5.12463 204.777 4.46838 205.708 4.46838ZM207.273 8.17737C207.038 8.67542 206.517 8.95081 205.755 8.95081C204.747 8.95081 204.097 8.24182 204.056 7.12268V7.05237H208.562V6.61292C208.562 4.60901 207.49 3.39612 205.714 3.39612C203.915 3.39612 202.773 4.69104 202.773 6.7301C202.773 8.76917 203.892 10.0231 205.72 10.0231C207.179 10.0231 208.199 9.31995 208.486 8.17737H207.273ZM209.762 5.32385C209.762 6.27307 210.325 6.81799 211.538 7.1051L212.651 7.36292C213.289 7.51526 213.588 7.76135 213.588 8.14221C213.588 8.65198 213.032 9.00354 212.246 9.00354C211.485 9.00354 211.016 8.69885 210.858 8.20667H209.598C209.709 9.33752 210.7 10.0231 212.217 10.0231C213.741 10.0231 214.86 9.22034 214.86 8.01917C214.86 7.08167 214.291 6.56018 213.079 6.27893L212.018 6.03284C211.327 5.87463 211.004 5.6344 211.004 5.25354C211.004 4.75549 211.538 4.42151 212.241 4.42151C212.955 4.42151 213.413 4.72034 213.53 5.18909H214.737C214.614 4.06409 213.676 3.39612 212.241 3.39612C210.799 3.39612 209.762 4.19299 209.762 5.32385Z" fill="black"/>
</svg>
