<svg width="16" height="20" viewBox="0 0 16 20" fill="none" xmlns="http://www.w3.org/2000/svg">
<path fill-rule="evenodd" clip-rule="evenodd" d="M8.14149 2.23087C7.12701 2.23087 6.3046 3.05077 6.3046 4.06217V5.05951H4.7764V4.06217C4.7764 2.20934 6.283 0.707321 8.14149 0.707321C9.99998 0.707321 11.5066 2.20934 11.5066 4.06217V5.05951H9.97838V4.06217C9.97838 3.05077 9.15598 2.23087 8.14149 2.23087ZM12.6621 6.58309H3.22001C2.68202 6.58309 2.23675 7.00012 2.2032 7.53543L1.80146 13.9436C1.67316 15.9902 3.30349 17.7203 5.36032 17.7203H10.5218C12.5786 17.7203 14.2089 15.9902 14.0806 13.9436L13.6789 7.53543C13.6453 7.00012 13.2001 6.58309 12.6621 6.58309ZM3.22001 5.05953C1.87503 5.05953 0.761869 6.10212 0.677971 7.44039L0.276236 13.8486C0.0929486 16.7723 2.42199 19.2439 5.36032 19.2439H10.5218C13.4601 19.2439 15.7891 16.7723 15.6059 13.8486L15.2041 7.44039C15.1202 6.10212 14.0071 5.05953 12.6621 5.05953H3.22001ZM9.97811 8.45043C9.97811 9.46183 9.1557 10.2817 8.14122 10.2817C7.12673 10.2817 6.30433 9.46183 6.30433 8.45043L6.30433 8.25096C6.30433 7.83024 5.96223 7.48919 5.54023 7.48919C5.11823 7.48919 4.77613 7.83024 4.77613 8.25096V8.45043C4.77613 10.3033 6.28273 11.8053 8.14122 11.8053C9.99971 11.8053 11.5063 10.3033 11.5063 8.45043V8.25096C11.5063 7.83024 11.1642 7.48918 10.7422 7.48918C10.3202 7.48918 9.97811 7.83024 9.97811 8.25096V8.45043Z" fill="#333333"/>
</svg>
