<svg width="96" height="28" viewBox="0 0 96 28" fill="none" xmlns="http://www.w3.org/2000/svg">
<path d="M5.77131 0.892933C3.82608 1.70718 1.68762 4.00753 1.01222 6.89497C0.156886 10.5535 3.71634 12.1005 4.00829 11.5933C4.35191 10.9972 3.37048 10.7957 3.16845 8.89747C2.90736 6.44579 4.04714 3.70631 5.4816 2.5043C5.74824 2.28098 5.73556 2.59181 5.73556 3.16674C5.73556 4.19485 5.67875 13.4243 5.67875 15.3505C5.67875 17.9568 5.57109 18.7799 5.37775 19.5932C5.18185 20.4173 4.86691 20.9742 5.10555 21.1887C5.37218 21.4287 6.51059 20.8579 7.16963 19.9381C7.95991 18.8349 8.23655 17.5101 8.28621 16.0713C8.3462 14.337 8.34365 11.5848 8.3462 10.0151C8.3486 8.57534 8.37046 4.35952 8.32097 1.82512C8.30884 1.20348 6.58482 0.551292 5.77122 0.892176L5.77131 0.892933ZM74.8465 13.0906C74.7838 14.4456 74.4838 15.5047 74.1116 16.2517C73.3909 17.698 71.8955 18.147 71.2606 16.068C70.9146 14.9347 70.8984 13.0421 71.1472 11.4606C71.4004 9.84954 72.1075 8.63282 73.2783 8.74255C74.4331 8.85102 74.9737 10.3391 74.8465 13.0905V13.0906ZM55.3782 21.4973C55.3626 23.7487 55.0082 25.7227 54.2484 26.296C53.1707 27.109 51.7222 26.4992 52.0221 24.8563C52.2875 23.4025 53.5426 21.9178 55.3813 20.1038C55.3813 20.1038 55.3851 20.5175 55.3783 21.4973H55.3782ZM55.0839 13.0775C55.018 14.3116 54.6981 15.5514 54.349 16.2519C53.6285 17.6981 52.1222 18.1503 51.498 16.0682C51.0712 14.6456 51.1734 12.8045 51.3846 11.6444C51.6586 10.1392 52.3228 8.74288 53.5157 8.74288C54.6755 8.74288 55.2474 10.0153 55.0839 13.0776V13.0775ZM43.8059 13.0586C43.7352 14.3657 43.4802 15.4583 43.071 16.2519C42.3307 17.6882 40.866 18.1437 40.22 16.0682C39.7544 14.5716 39.9129 12.531 40.1066 11.4286C40.3941 9.79275 41.1139 8.63298 42.2377 8.74288C43.3921 8.85565 43.9532 10.3392 43.8059 13.0587V13.0586ZM95.4904 14.5853C95.2082 14.5853 95.0794 14.8762 94.9729 15.3658C94.6033 17.0682 94.2149 17.4526 93.7141 17.4526C93.1545 17.4526 92.6517 16.6096 92.5225 14.9222C92.4209 13.5953 92.4372 11.1525 92.5671 8.72257C92.5936 8.22331 92.4559 7.72933 91.1168 7.24286C90.5406 7.03362 89.703 6.72552 89.286 7.73221C88.1076 10.5763 87.6466 12.8343 87.5381 13.7515C87.5325 13.799 87.4743 13.8087 87.4641 13.6978C87.395 12.9631 87.2404 11.6281 87.2212 8.8232C87.2175 8.27594 87.1016 7.81011 86.4975 7.42874C86.1056 7.18128 84.9154 6.7436 84.4869 7.26429C84.1156 7.69014 83.6856 8.83615 83.2388 10.1946C82.8757 11.2987 82.6228 12.0456 82.6228 12.0456C82.6228 12.0456 82.6276 9.06651 82.6319 7.93649C82.6338 7.51017 82.3414 7.36812 82.2532 7.34237C81.8563 7.22718 81.0744 7.03475 80.7425 7.03475C80.333 7.03475 80.2327 7.26366 80.2327 7.5972C80.2327 7.64087 80.168 11.5195 80.168 14.2316C80.168 14.3494 80.168 14.4779 80.1692 14.6145C79.9427 15.861 79.2081 17.5531 78.4092 17.5531C77.6094 17.5531 77.232 16.8457 77.232 13.6124C77.232 11.7262 77.2887 10.9061 77.3165 9.54185C77.3327 8.75608 77.3639 8.15267 77.3621 8.01573C77.3562 7.59582 76.6301 7.38418 76.2922 7.30596C75.9528 7.22708 75.6578 7.19653 75.4274 7.20965C75.1014 7.22804 74.8707 7.44193 74.8707 7.73611C74.8707 7.89384 74.8725 8.19378 74.8725 8.19378C74.4526 7.53391 73.7772 7.07464 73.3279 6.94154C72.1176 6.5821 70.8546 6.90059 69.902 8.23362C69.1448 9.29277 68.6885 10.4924 68.5088 12.2159C68.3775 13.4759 68.4203 14.7536 68.6537 15.8342C68.3717 17.0535 67.8481 17.5531 67.2748 17.5531C66.4425 17.5531 65.8391 16.1946 65.9091 13.845C65.9554 12.2996 66.2646 11.2151 66.6026 9.64614C66.7468 8.97731 66.6297 8.62713 66.3359 8.29152C66.0666 7.98374 65.4926 7.82649 64.6675 8.0199C64.0797 8.15779 63.2394 8.30608 62.4706 8.41998C62.4706 8.41998 62.517 8.23489 62.5551 7.90856C62.755 6.19721 60.8954 6.33606 60.3021 6.88267C59.9479 7.20901 59.7068 7.5939 59.6153 8.28593C59.4702 9.38412 60.3659 9.9021 60.3659 9.9021C60.072 11.2473 59.3517 13.0045 58.608 14.275C58.2097 14.9557 57.9049 15.4601 57.5116 15.9963C57.5101 15.7966 57.509 15.597 57.5083 15.3983C57.4993 12.5702 57.537 10.3444 57.5536 9.54211C57.5698 8.75635 57.6013 8.16894 57.5995 8.03201C57.5951 7.72487 57.4157 7.60889 57.0426 7.46203C56.7128 7.33214 56.3228 7.24224 55.9182 7.21088C55.4076 7.17105 55.1 7.44188 55.108 7.76214C55.1095 7.82261 55.1095 8.1939 55.1095 8.1939C54.6896 7.53402 54.0142 7.07476 53.5649 6.94165C52.3545 6.58236 51.0916 6.90086 50.139 8.23373C49.382 9.29288 48.8862 10.7792 48.7458 12.2029C48.6149 13.5298 48.6391 14.6574 48.8175 15.6073C48.625 16.5585 48.0717 17.5532 47.446 17.5532C46.6462 17.5532 46.1911 16.8458 46.1911 13.6125C46.1911 11.7263 46.2477 10.9062 46.2756 9.54211C46.2917 8.75635 46.3229 8.15279 46.3211 8.01601C46.3153 7.59609 45.5891 7.38445 45.2513 7.30607C44.8977 7.22432 44.5925 7.19425 44.3582 7.21152C44.0489 7.23456 43.8315 7.51147 43.8315 7.71799V8.1939C43.4116 7.53402 42.7362 7.07476 42.2869 6.94165C41.0766 6.58236 39.8206 6.90599 38.861 8.23373C38.2352 9.09948 37.7286 10.0593 37.4678 12.184C37.3925 12.798 37.3592 13.373 37.3635 13.9104C37.114 15.4365 36.0118 17.1955 35.1102 17.1955C34.5826 17.1955 34.0801 16.1722 34.0801 13.9913C34.0801 11.0863 34.2599 6.95014 34.2903 6.5515C34.2903 6.5515 35.4295 6.53214 35.6501 6.52957C36.2183 6.52333 36.7329 6.53677 37.4897 6.49806C37.8693 6.4787 38.235 5.1164 37.8432 4.9478C37.6657 4.8715 36.4107 4.80463 35.9132 4.79407C35.4949 4.78459 34.3303 4.69841 34.3303 4.69841C34.3303 4.69841 34.4348 1.95301 34.4591 1.663C34.4797 1.42128 34.167 1.29683 33.9877 1.22131C33.5516 1.03687 33.1614 0.948564 32.699 0.853224C32.06 0.721416 31.7702 0.850345 31.7136 1.3896C31.6283 2.20801 31.5841 4.60514 31.5841 4.60514C31.1153 4.60514 29.5137 4.51349 29.0446 4.51349C28.6089 4.51349 28.1386 6.38753 28.741 6.41056C29.4342 6.43744 30.6421 6.46063 31.4429 6.48479C31.4429 6.48479 31.4072 10.6891 31.4072 11.9871C31.4072 12.1252 31.4084 12.2582 31.4087 12.3872C30.9679 14.6844 29.4156 15.9252 29.4156 15.9252C29.749 14.4055 29.068 13.2643 27.8413 12.2983C27.3894 11.9423 26.4973 11.2683 25.4991 10.5298C25.4991 10.5298 26.0772 9.95999 26.5899 8.81365C26.9532 8.00165 26.9689 7.07238 26.0772 6.86747C24.6039 6.52865 23.3891 7.61068 23.0267 8.76582C22.746 9.66068 22.8957 10.3247 23.4457 11.0145C23.4859 11.0649 23.5294 11.1164 23.5743 11.1682C23.2417 11.8093 22.7849 12.6723 22.3979 13.3416C21.3239 15.1998 20.5125 16.6696 19.8993 16.6696C19.4092 16.6696 19.4158 15.1773 19.4158 13.7802C19.4158 12.5758 19.5047 10.7649 19.5757 8.89011C19.5992 8.27007 19.2892 7.91685 18.7695 7.59692C18.4537 7.40256 17.7798 7.0204 17.3894 7.0204C16.8052 7.0204 15.1196 7.09989 13.527 11.7069C13.3263 12.2875 12.932 13.3456 12.932 13.3456L12.9659 7.80552C12.9659 7.67563 12.8967 7.55005 12.7383 7.46414C12.4699 7.31841 11.7531 7.0204 11.1157 7.0204C10.8121 7.0204 10.6605 7.16165 10.6605 7.44319L10.6049 16.1106C10.6049 16.7692 10.6221 17.5375 10.6872 17.8735C10.7521 18.21 10.8572 18.4836 10.9873 18.6465C11.1173 18.809 11.2677 18.933 11.5155 18.9842C11.7462 19.0317 13.0096 19.1939 13.0752 18.7111C13.1539 18.1325 13.1569 17.5067 13.8203 15.1727C14.853 11.539 16.1995 9.7661 16.8325 9.13646C16.9432 9.02641 17.0696 9.01985 17.0635 9.19997C17.0364 9.99662 16.9414 11.9873 16.8774 13.6785C16.706 18.2043 17.5293 19.0432 18.7059 19.0432C19.606 19.0432 20.8749 18.1488 22.2351 15.8848C23.0831 14.4739 23.9065 13.0904 24.4981 12.0933C24.9103 12.475 25.3729 12.8857 25.8352 13.3245C26.9096 14.3442 27.2623 15.3131 27.0283 16.2322C26.8493 16.9349 26.1752 17.6591 24.9754 16.9552C24.6257 16.7499 24.4765 16.5912 24.1248 16.3597C23.9359 16.2354 23.6475 16.1982 23.4746 16.3285C23.0254 16.6671 22.7685 17.0979 22.6218 17.6313C22.4791 18.1502 22.9988 18.4246 23.5376 18.6645C24.0015 18.871 24.9986 19.0582 25.6345 19.0795C28.1121 19.1624 30.0968 17.8832 31.4785 14.5837C31.7258 17.4333 32.7784 19.0457 34.6072 19.0457C35.8298 19.0457 37.0556 17.4654 37.5917 15.9107C37.7456 16.5444 37.9734 17.0955 38.2676 17.5615C39.6767 19.7942 42.4105 19.3137 43.7836 17.4178C44.2082 16.8319 44.2728 16.6214 44.2728 16.6214C44.4731 18.4116 45.9147 19.0371 46.7402 19.0371C47.6647 19.0371 48.6192 18.6001 49.2882 17.094C49.3666 17.2574 49.4521 17.4135 49.5456 17.5615C50.9547 19.7942 53.6884 19.3136 55.0616 17.4177C55.1264 17.3288 55.1826 17.2481 55.2317 17.1757L55.272 18.3516C55.272 18.3516 54.4886 19.0702 54.0077 19.5111C51.8914 21.4528 50.2821 22.9259 50.1637 24.6414C50.0117 26.8289 51.7858 27.6418 53.1279 27.7484C54.5532 27.8615 55.7738 27.0741 56.5241 25.9722C57.1839 25.0023 57.6159 22.9149 57.5842 20.8532C57.5715 20.0276 57.5507 18.9779 57.5344 17.8527C58.2783 16.9888 59.1164 15.897 59.8881 14.619C60.729 13.2263 61.6303 11.356 62.0918 9.90043C62.0918 9.90043 62.8748 9.90715 63.7105 9.85244C63.9778 9.83501 64.0546 9.88955 64.0052 10.0855C63.9455 10.3223 62.9494 14.1644 63.8585 16.7239C64.4808 18.4761 65.8835 19.0398 66.7152 19.0398C67.6888 19.0398 68.6201 18.3046 69.1192 17.2128C69.1794 17.3345 69.2422 17.4523 69.3109 17.561C70.72 19.7937 73.4442 19.3103 74.8269 17.4172C75.139 16.9901 75.3161 16.6209 75.3161 16.6209C75.6129 18.4737 77.0537 19.046 77.879 19.046C78.7387 19.046 79.5545 18.6936 80.2165 17.1274C80.2441 17.817 80.2876 18.3809 80.3564 18.5586C80.3983 18.6674 80.6426 18.8039 80.8203 18.8698C81.6067 19.1614 82.4088 19.0235 82.7056 18.9635C82.9111 18.9219 83.0714 18.757 83.0933 18.3311C83.1509 17.213 83.1156 15.3343 83.4546 13.938C84.0236 11.5948 84.5543 10.6859 84.8061 10.2359C84.9471 9.98377 85.1061 9.94218 85.1118 10.209C85.1237 10.7489 85.1505 12.3344 85.371 14.4645C85.5329 16.0312 85.7492 16.9572 85.9154 17.2502C86.3897 18.0883 86.9755 18.128 87.4525 18.128C87.756 18.128 88.3906 18.0441 88.3338 17.5108C88.3061 17.2508 88.3546 15.6443 88.9156 13.3358C89.2819 11.8282 89.8927 10.4661 90.113 9.96809C90.1942 9.78444 90.232 9.92921 90.2307 9.95741C90.1843 10.9956 90.0802 14.3914 90.5031 16.2487C91.0764 18.7647 92.735 19.0462 93.313 19.0462C94.5468 19.0462 95.5559 18.1077 95.8958 15.6381C95.9777 15.0438 95.8565 14.5849 95.4932 14.5849" fill="#262626"/>
</svg>
